<?xml version="1.0" encoding="UTF-8" standalone="no"?>
<!-- Created with Inkscape (http://www.inkscape.org/) -->

<svg
   width="354.93765mm"
   height="88.912247mm"
   viewBox="0 0 354.93765 88.912247"
   version="1.1"
   id="svg1"
   xml:space="preserve"
   inkscape:version="1.3.2 (091e20e, 2023-11-25, custom)"
   sodipodi:docname="inkspace打开编辑.svg"
   xmlns:inkscape="http://www.inkscape.org/namespaces/inkscape"
   xmlns:sodipodi="http://sodipodi.sourceforge.net/DTD/sodipodi-0.dtd"
   xmlns="http://www.w3.org/2000/svg"
   xmlns:svg="http://www.w3.org/2000/svg"><sodipodi:namedview
     id="namedview1"
     pagecolor="#ffffff"
     bordercolor="#000000"
     borderopacity="0.25"
     inkscape:showpageshadow="2"
     inkscape:pageopacity="0.0"
     inkscape:pagecheckerboard="0"
     inkscape:deskcolor="#d1d1d1"
     inkscape:document-units="mm"
     inkscape:zoom="0.74394518"
     inkscape:cx="622.35769"
     inkscape:cy="1217.1596"
     inkscape:window-width="2560"
     inkscape:window-height="1377"
     inkscape:window-x="-8"
     inkscape:window-y="32"
     inkscape:window-maximized="1"
     inkscape:current-layer="g2"
     inkscape:export-bgcolor="#ffffffff"><inkscape:page
       x="-8.3100485e-06"
       y="-4.7970752e-06"
       width="354.93765"
       height="88.912247"
       id="page3"
       margin="0"
       bleed="0" /><inkscape:page
       x="-9.2468805"
       y="152.21776"
       width="538.45251"
       height="182.09229"
       id="page4"
       margin="0"
       bleed="0"
       inkscape:export-filename="页面 2.png"
       inkscape:export-xdpi="96"
       inkscape:export-ydpi="96" /></sodipodi:namedview><defs
     id="defs1"><rect
       x="44.672672"
       y="575.04184"
       width="1501.9204"
       height="667.82017"
       id="rect30" /></defs><g
     inkscape:label="图层 1"
     inkscape:groupmode="layer"
     id="layer1"
     transform="translate(-243.97519,3.5564871)"><g
       id="g2"
       transform="matrix(0.26458333,0,0,0.26458333,247.38877,144.26842)"><rect
         x="123.5"
         y="-317.5"
         class="st0"
         width="861"
         height="33"
         id="rect1" /><rect
         x="123.5"
         y="-506.5"
         class="st0"
         width="861"
         height="33"
         id="rect2" /><rect
         x="123.5"
         y="-380.5"
         class="st0"
         width="861"
         height="33"
         id="rect3" /><rect
         x="123.5"
         y="-443.5"
         class="st0"
         width="861"
         height="33"
         id="rect4" /><rect
         x="804"
         y="-497"
         class="st1"
         width="118.39302"
         height="16"
         id="rect5"
         style="stroke-width:1.03277" /><rect
         x="805"
         y="-434"
         class="st1"
         width="118.05697"
         height="16"
         id="rect6"
         style="stroke-width:1.0313" /><rect
         x="806"
         y="-370"
         class="st1"
         width="117.38488"
         height="16"
         id="rect7"
         style="stroke-width:1.02836" /><rect
         x="806"
         y="-307"
         class="st1"
         width="118.56104"
         height="16"
         id="rect8"
         style="stroke-width:1.0335" /><rect
         x="133"
         y="-496"
         style="fill:none"
         width="824"
         height="13"
         id="rect9" /><text
         transform="translate(133,-485.626)"
         class="st4"
         style="font-style:normal;font-variant:normal;font-weight:normal;font-stretch:normal;font-size:12px;font-family:Hack;-inkscape-font-specification:Hack"
         id="text9">let framework_signer = &amp;aptos_governance::resolve_multi_step_proposal(proposal_id,@framework,hash_of_script_b);</text><rect
         x="134"
         y="-433"
         style="fill:none"
         width="824"
         height="13"
         id="rect10" /><text
         transform="translate(134,-422.626)"
         class="st4"
         style="font-style:normal;font-variant:normal;font-weight:normal;font-stretch:normal;font-size:12px;font-family:Hack;-inkscape-font-specification:Hack"
         id="text10">let framework_signer = &amp;aptos_governance::resolve_multi_step_proposal(proposal_id,@framework,hash_of_script_b);</text><rect
         x="135"
         y="-368"
         style="fill:none"
         width="824"
         height="13"
         id="rect11" /><text
         transform="translate(135,-357.626)"
         class="st4"
         style="font-style:normal;font-variant:normal;font-weight:normal;font-stretch:normal;font-size:12px;font-family:Hack;-inkscape-font-specification:Hack"
         id="text11">let framework_signer = &amp;aptos_governance::resolve_multi_step_proposal(proposal_id,@framework,hash_of_script_b);</text><rect
         x="136"
         y="-305"
         style="fill:none"
         width="824"
         height="13"
         id="rect12" /><text
         transform="translate(136,-294.626)"
         class="st4"
         style="font-style:normal;font-variant:normal;font-weight:normal;font-stretch:normal;font-size:12px;font-family:Hack;-inkscape-font-specification:Hack"
         id="text12">let framework_signer = &amp;aptos_governance::resolve_multi_step_proposal(proposal_id,@framework,hash_of_script_b);</text><text
         transform="translate(18,-483)"
         class="st4 st5"
         id="text13"
         style="-inkscape-font-specification:Hack;font-family:Hack;font-weight:normal;font-style:normal;font-stretch:normal;font-variant:normal">script_a</text><text
         transform="translate(16,-423)"
         class="st4 st5"
         id="text14"
         style="-inkscape-font-specification:Hack;font-family:Hack;font-weight:normal;font-style:normal;font-stretch:normal;font-variant:normal">script_b</text><text
         transform="translate(18,-359)"
         class="st4 st5"
         id="text15"
         style="-inkscape-font-specification:Hack;font-family:Hack;font-weight:normal;font-style:normal;font-stretch:normal;font-variant:normal">script_c</text><text
         transform="translate(18,-293)"
         class="st4 st5"
         id="text16"
         style="-inkscape-font-specification:Hack;font-family:Hack;font-weight:normal;font-style:normal;font-stretch:normal;font-variant:normal">script_d</text><text
         transform="translate(994,-445.3335)"
         class="st4"
         style="font-size:12px;-inkscape-font-specification:Hack;font-family:Hack;font-weight:normal;font-style:normal;font-stretch:normal;font-variant:normal"
         id="text17">hash(script_b)</text><rect
         x="1136.3"
         y="-480.29999"
         style="fill:none"
         width="166.7"
         height="261.29999"
         id="rect17" /><text
         transform="translate(1136.333,-469.959)"
         id="text27"><tspan
           x="0"
           y="0"
           class="st4"
           style="font-size:12px;-inkscape-font-specification:Hack;font-family:Hack;font-weight:normal;font-style:normal;font-stretch:normal;font-variant:normal"
           id="tspan17">When building the</tspan><tspan
           x="0"
           y="14.4"
           class="st4"
           style="font-size:12px;-inkscape-font-specification:Hack;font-family:Hack;font-weight:normal;font-style:normal;font-stretch:normal;font-variant:normal"
           id="tspan18">script hashes, we start</tspan><tspan
           x="0"
           y="28.799999"
           class="st4"
           style="font-size:12px;-inkscape-font-specification:Hack;font-family:Hack;font-weight:normal;font-style:normal;font-stretch:normal;font-variant:normal"
           id="tspan19">from the last script,</tspan><tspan
           x="0"
           y="43.200001"
           class="st4"
           style="font-size:12px;-inkscape-font-specification:Hack;font-family:Hack;font-weight:normal;font-style:normal;font-stretch:normal;font-variant:normal"
           id="tspan20">hash it, and pass the</tspan><tspan
           x="0"
           y="57.599998"
           class="st4"
           style="font-size:12px;-inkscape-font-specification:Hack;font-family:Hack;font-weight:normal;font-style:normal;font-stretch:normal;font-variant:normal"
           id="tspan21">hash to the previous</tspan><tspan
           x="0"
           y="72"
           class="st4"
           style="font-size:12px;-inkscape-font-specification:Hack;font-family:Hack;font-weight:normal;font-style:normal;font-stretch:normal;font-variant:normal"
           id="tspan22">script.</tspan><tspan
           x="0"
           y="100.8"
           class="st7"
           style="font-size:12px"
           id="tspan23">在生成脚本的哈希值时，我们</tspan><tspan
           x="0"
           y="115.2"
           class="st7"
           style="font-size:12px"
           id="tspan24">的处理顺序是从最后一个脚本</tspan><tspan
           x="0"
           y="129.60001"
           class="st7"
           style="font-size:12px"
           id="tspan25">开始，对它进行哈希加密，然</tspan><tspan
           x="0"
           y="144"
           class="st7"
           style="font-size:12px"
           id="tspan26">后把得到的哈希值传递给前一</tspan><tspan
           x="0"
           y="158.39999"
           class="st7"
           style="font-size:12px"
           id="tspan27">个脚本，以此类推。</tspan></text><text
         transform="translate(994.1696,-381.345)"
         class="st4"
         style="font-size:12px;-inkscape-font-specification:Hack;font-family:Hack;font-weight:normal;font-style:normal;font-stretch:normal;font-variant:normal"
         id="text28">hash(script_b)</text><text
         transform="translate(994.1696,-319.0117)"
         class="st4"
         style="font-size:12px;-inkscape-font-specification:Hack;font-family:Hack;font-weight:normal;font-style:normal;font-stretch:normal;font-variant:normal"
         id="text29">hash(script_b)</text><line
         class="st2"
         x1="1108"
         y1="-519.5"
         x2="1108"
         y2="-260.5"
         id="line29" /><g
         id="g30">
	<g
   id="g29">
		<path
   d="m 1106.5,-520.1 c -2.1,4.6 -4.2,9.2 -6.2,13.9 -0.3,0.7 -0.2,1.6 0.5,2.1 0.6,0.4 1.7,0.2 2.1,-0.5 2.1,-4.6 4.2,-9.2 6.2,-13.9 0.3,-0.7 0.2,-1.6 -0.5,-2.1 -0.7,-0.5 -1.8,-0.3 -2.1,0.5 z"
   id="path29" />
	</g>
</g><g
         id="g32">
	<g
   id="g31">
		<path
   d="m 1106.5,-518.7 c 2.3,4.2 4.9,8.1 7.8,11.8 0.5,0.6 1.6,0.5 2.1,0 0.6,-0.6 0.5,-1.5 0,-2.1 -2.8,-3.5 -5.2,-7.3 -7.3,-11.2 -1,-1.7 -3.6,-0.2 -2.6,1.5 z"
   id="path30" />
	</g>
</g><rect
         x="541.5"
         y="48.5"
         class="st9"
         width="603"
         height="153"
         id="rect69" /><rect
         x="1210.5"
         y="79.5"
         class="st9"
         width="598"
         height="57"
         id="rect70" /><rect
         x="751.33606"
         y="441.51355"
         class="st9"
         width="1037.1504"
         height="216.97289"
         id="rect71"
         style="stroke-width:1.02711" /><text
         transform="translate(561,90.333)"
         id="text76"><tspan
           x="0"
           y="0"
           class="st7 st10"
           id="tspan71">返回框架签名者</tspan><tspan
           x="0"
           y="57.599998"
           class="st7 st10"
           id="tspan72">将</tspan><tspan
           x="24"
           y="57.599998"
           class="st11 st7 st10"
           id="tspan73" /><tspan
           x="29.4"
           y="57.599998"
           class="st3 st7 st10"
           id="tspan74">ApprovedExecutionHashes</tspan><tspan
           x="330.60001"
           y="57.599998"
           class="st7 st10"
           id="tspan75">中的当前执行哈希</tspan><tspan
           x="0"
           y="86.400002"
           class="st7 st10"
           id="tspan76">替换为下一步执行哈希。</tspan></text><text
         transform="translate(1225.667,117.333)"
         class="st3 st7 st10"
         id="text77">aptos_governance::resolve_multi_step_proposal()</text><g
         id="g234"
         transform="translate(-58.929908,-3.8019295)">
	<g
   id="g233">
		<path
   class="st3"
   d="m 972.6,481.3 h 3 l 3.3,9.9 c 0.5,1.7 1.1,3.5 1.6,5.1 h 0.2 c 0.5,-1.7 1.1,-3.4 1.6,-5.1 l 3.3,-9.9 h 2.9 l -6.1,17.4 H 979 Z"
   id="path77" />
		<path
   class="st3"
   d="m 990.5,490 c 0,-5.8 3.8,-9.2 8,-9.2 4.2,0 8,3.4 8,9.2 0,5.8 -3.8,9.1 -8,9.1 -4.2,0 -8,-3.3 -8,-9.1 z m 13.1,0 c 0,-4 -2,-6.7 -5.1,-6.7 -3.1,0 -5,2.7 -5,6.7 0,4 2,6.7 5,6.7 3,0 5.1,-2.7 5.1,-6.7 z"
   id="path78" />
		<path
   class="st3"
   d="m 1011.7,493.3 v -9.6 h -2.6 v -2.2 l 2.8,-0.2 0.3,-4.9 h 2.4 v 4.9 h 4.7 v 2.4 h -4.7 v 9.7 c 0,2.1 0.7,3.3 2.7,3.3 0.6,0 1.4,-0.2 2,-0.5 l 0.6,2.2 c -1,0.3 -2.1,0.6 -3.2,0.6 -3.7,0.1 -5,-2.2 -5,-5.7 z"
   id="path79" />
		<path
   class="st3"
   d="m 1022.8,475.8 c 0,-1.1 0.8,-1.9 1.9,-1.9 1.2,0 2,0.8 2,1.9 0,1.2 -0.8,2 -2,2 -1.1,-0.1 -1.9,-0.9 -1.9,-2 z m 0.5,5.5 h 2.9 v 17.4 h -2.9 z"
   id="path80" />
		<path
   class="st3"
   d="m 1032.1,481.3 h 2.4 l 0.3,2.5 h 0.1 c 1.6,-1.7 3.5,-3 5.8,-3 3.6,0 5.3,2.4 5.3,6.8 v 11 h -2.9 V 488 c 0,-3.3 -1,-4.6 -3.3,-4.6 -1.8,0 -3,0.9 -4.7,2.7 v 12.6 h -2.9 v -17.4 z"
   id="path81" />
		<path
   class="st3"
   d="m 1050.3,502 c 0,-1.5 0.9,-2.9 2.6,-3.9 v -0.2 c -0.9,-0.5 -1.6,-1.5 -1.6,-2.8 0,-1.4 1,-2.6 1.9,-3.2 v -0.1 c -1.2,-0.9 -2.3,-2.6 -2.3,-4.7 0,-3.8 3,-6.2 6.5,-6.2 1,0 1.9,0.2 2.5,0.4 h 6 v 2.2 h -3.6 c 0.8,0.8 1.4,2.1 1.4,3.6 0,3.7 -2.8,6 -6.4,6 -0.8,0 -1.8,-0.2 -2.6,-0.6 -0.6,0.5 -1.1,1.1 -1.1,2.1 0,1.1 0.7,1.9 3,1.9 h 3.4 c 4,0 6,1.2 6,4.1 0,3.2 -3.4,6 -8.8,6 -4,0.1 -6.9,-1.6 -6.9,-4.6 z m 13.1,-0.9 c 0,-1.6 -1.2,-2.2 -3.5,-2.2 h -3 c -0.6,0 -1.5,-0.1 -2.2,-0.3 -1.2,0.9 -1.8,2 -1.8,2.9 0,1.9 1.9,3 5,3 3.3,0.2 5.5,-1.6 5.5,-3.4 z m -2.3,-14 c 0,-2.6 -1.6,-4.1 -3.7,-4.1 -2,0 -3.7,1.5 -3.7,4.1 0,2.5 1.7,4.1 3.7,4.1 2,0 3.7,-1.6 3.7,-4.1 z"
   id="path82" />
		<path
   class="st3"
   d="m 1069,483.9 c 0,-1.3 0.9,-2.2 2.1,-2.2 1.2,0 2.1,0.9 2.1,2.2 0,1.3 -1,2.2 -2.1,2.2 -1.1,0.1 -2.1,-0.8 -2.1,-2.2 z m 0,13 c 0,-1.3 0.9,-2.2 2.1,-2.2 1.2,0 2.1,0.9 2.1,2.2 0,1.3 -1,2.2 -2.1,2.2 -1.1,0 -2.1,-0.9 -2.1,-2.2 z"
   id="path83" />
		<path
   class="st3"
   d="m 1077.9,483.9 c 0,-1.3 0.9,-2.2 2.1,-2.2 1.2,0 2.1,0.9 2.1,2.2 0,1.3 -1,2.2 -2.1,2.2 -1.2,0.1 -2.1,-0.8 -2.1,-2.2 z m 0,13 c 0,-1.3 0.9,-2.2 2.1,-2.2 1.2,0 2.1,0.9 2.1,2.2 0,1.3 -1,2.2 -2.1,2.2 -1.2,0 -2.1,-0.9 -2.1,-2.2 z"
   id="path84" />
		<path
   class="st3"
   d="m 1087.4,481.3 h 2.4 l 0.3,3.2 h 0.1 c 1.2,-2.2 3,-3.6 4.9,-3.6 0.8,0 1.3,0.1 1.9,0.4 l -0.5,2.5 c -0.6,-0.2 -1,-0.3 -1.7,-0.3 -1.4,0 -3.2,1.1 -4.4,4 v 11.2 h -2.9 v -17.4 z"
   id="path85" />
		<path
   class="st3"
   d="m 1098.6,490 c 0,-5.7 3.8,-9.2 7.8,-9.2 4.4,0 6.9,3.2 6.9,8.2 0,0.6 -0.1,1.2 -0.1,1.7 h -11.7 c 0.2,3.7 2.5,6.1 5.8,6.1 1.7,0 3,-0.5 4.4,-1.4 l 1,2 c -1.5,1 -3.4,1.8 -5.7,1.8 -4.8,-0.1 -8.4,-3.5 -8.4,-9.2 z m 12.1,-1.4 c 0,-3.5 -1.6,-5.4 -4.3,-5.4 -2.5,0 -4.6,2 -5,5.4 z"
   id="path86" />
		<path
   class="st3"
   d="m 1115.6,496.7 1.4,-2 c 1.5,1.2 3.1,2.1 5.2,2.1 2.3,0 3.4,-1.2 3.4,-2.7 0,-1.8 -2,-2.6 -4,-3.3 -2.4,-0.9 -5.1,-2 -5.1,-5 0,-2.8 2.2,-4.9 6,-4.9 2.1,0 4.1,0.9 5.4,2 l -1.4,1.8 c -1.2,-0.9 -2.4,-1.5 -3.9,-1.5 -2.2,0 -3.2,1.2 -3.2,2.5 0,1.6 1.8,2.3 3.7,3 2.5,1 5.3,2 5.3,5.3 0,2.8 -2.2,5.2 -6.3,5.2 -2.5,-0.1 -4.8,-1.1 -6.5,-2.5 z"
   id="path87" />
		<path
   class="st3"
   d="m 1131.3,490 c 0,-5.8 3.8,-9.2 8,-9.2 4.2,0 8,3.4 8,9.2 0,5.8 -3.8,9.1 -8,9.1 -4.2,0 -8,-3.3 -8,-9.1 z m 13.1,0 c 0,-4 -2,-6.7 -5.1,-6.7 -3.1,0 -5,2.7 -5,6.7 0,4 2,6.7 5,6.7 3,0 5.1,-2.7 5.1,-6.7 z"
   id="path88" />
		<path
   class="st3"
   d="m 1151.9,495.2 v -22 h 2.9 v 22.2 c 0,0.9 0.4,1.2 0.8,1.2 0.2,0 0.3,0 0.6,-0.1 l 0.4,2.2 c -0.4,0.1 -0.9,0.3 -1.7,0.3 -2.1,0.1 -3,-1.3 -3,-3.8 z"
   id="path89" />
		<path
   class="st3"
   d="m 1158.5,481.3 h 3 l 3.3,9.9 c 0.5,1.7 1.1,3.5 1.6,5.1 h 0.2 c 0.5,-1.7 1.1,-3.4 1.6,-5.1 l 3.3,-9.9 h 2.9 l -6.1,17.4 h -3.4 z"
   id="path90" />
		<path
   class="st3"
   d="m 1176.4,490 c 0,-5.7 3.8,-9.2 7.8,-9.2 4.4,0 6.9,3.2 6.9,8.2 0,0.6 -0.1,1.2 -0.1,1.7 h -11.7 c 0.2,3.7 2.5,6.1 5.8,6.1 1.7,0 3,-0.5 4.4,-1.4 l 1,2 c -1.5,1 -3.4,1.8 -5.7,1.8 -4.7,-0.1 -8.4,-3.5 -8.4,-9.2 z m 12.2,-1.4 c 0,-3.5 -1.6,-5.4 -4.3,-5.4 -2.5,0 -4.6,2 -5,5.4 z"
   id="path91" />
		<path
   class="st3"
   d="m 1192.9,501.2 h 17 v 1.9 h -17 z"
   id="path92" />
		<path
   class="st3"
   d="m 1213.3,481.3 h 2.4 l 0.3,2.5 h 0.1 c 1.5,-1.7 3.3,-3 5.4,-3 2.7,0 4.1,1.3 4.8,3.3 1.8,-2 3.6,-3.3 5.8,-3.3 3.6,0 5.2,2.4 5.2,6.8 v 11 h -2.9 V 488 c 0,-3.3 -1,-4.6 -3.2,-4.6 -1.3,0 -2.8,0.9 -4.4,2.7 v 12.6 h -2.9 V 488 c 0,-3.3 -1,-4.6 -3.2,-4.6 -1.3,0 -2.8,0.9 -4.4,2.7 v 12.6 h -2.9 v -17.4 z"
   id="path93" />
		<path
   class="st3"
   d="m 1242.7,492.3 v -11 h 2.9 V 492 c 0,3.2 1,4.6 3.3,4.6 1.8,0 3,-0.9 4.7,-2.9 v -12.3 h 2.9 v 17.4 h -2.4 l -0.2,-2.7 h -0.1 c -1.6,1.9 -3.4,3.1 -5.7,3.1 -3.8,-0.1 -5.4,-2.5 -5.4,-6.9 z"
   id="path94" />
		<path
   class="st3"
   d="m 1262.4,495.2 v -22 h 2.9 v 22.2 c 0,0.9 0.4,1.2 0.8,1.2 0.2,0 0.3,0 0.6,-0.1 l 0.4,2.2 c -0.4,0.1 -0.9,0.3 -1.7,0.3 -2.1,0.1 -3,-1.3 -3,-3.8 z"
   id="path95" />
		<path
   class="st3"
   d="m 1272,493.3 v -9.6 h -2.6 v -2.2 l 2.8,-0.2 0.3,-4.9 h 2.4 v 4.9 h 4.7 v 2.4 h -4.7 v 9.7 c 0,2.1 0.7,3.3 2.7,3.3 0.6,0 1.4,-0.2 2,-0.5 l 0.6,2.2 c -1,0.3 -2.1,0.6 -3.2,0.6 -3.8,0.1 -5,-2.2 -5,-5.7 z"
   id="path96" />
		<path
   class="st3"
   d="m 1283.1,475.8 c 0,-1.1 0.8,-1.9 1.9,-1.9 1.2,0 2,0.8 2,1.9 0,1.2 -0.8,2 -2,2 -1.2,-0.1 -1.9,-0.9 -1.9,-2 z m 0.4,5.5 h 2.9 v 17.4 h -2.9 z"
   id="path97" />
		<path
   class="st3"
   d="m 1289.8,501.2 h 17 v 1.9 h -17 z"
   id="path98" />
		<path
   class="st3"
   d="m 1308.3,496.7 1.4,-2 c 1.5,1.2 3.1,2.1 5.2,2.1 2.3,0 3.4,-1.2 3.4,-2.7 0,-1.8 -2,-2.6 -4,-3.3 -2.4,-0.9 -5.1,-2 -5.1,-5 0,-2.8 2.2,-4.9 6,-4.9 2.1,0 4.1,0.9 5.4,2 l -1.4,1.8 c -1.2,-0.9 -2.4,-1.5 -3.9,-1.5 -2.2,0 -3.2,1.2 -3.2,2.5 0,1.6 1.8,2.3 3.7,3 2.5,1 5.3,2 5.3,5.3 0,2.8 -2.2,5.2 -6.3,5.2 -2.5,-0.1 -4.9,-1.1 -6.5,-2.5 z"
   id="path99" />
		<path
   class="st3"
   d="m 1325.7,493.3 v -9.6 h -2.6 v -2.2 l 2.8,-0.2 0.3,-4.9 h 2.4 v 4.9 h 4.7 v 2.4 h -4.7 v 9.7 c 0,2.1 0.7,3.3 2.7,3.3 0.6,0 1.4,-0.2 2,-0.5 l 0.6,2.2 c -1,0.3 -2.1,0.6 -3.2,0.6 -3.8,0.1 -5,-2.2 -5,-5.7 z"
   id="path100" />
		<path
   class="st3"
   d="m 1336,490 c 0,-5.7 3.8,-9.2 7.8,-9.2 4.4,0 6.9,3.2 6.9,8.2 0,0.6 -0.1,1.2 -0.1,1.7 h -11.7 c 0.2,3.7 2.5,6.1 5.8,6.1 1.7,0 3,-0.5 4.4,-1.4 l 1,2 c -1.5,1 -3.4,1.8 -5.7,1.8 -4.8,-0.1 -8.4,-3.5 -8.4,-9.2 z m 12.1,-1.4 c 0,-3.5 -1.6,-5.4 -4.3,-5.4 -2.5,0 -4.6,2 -5,5.4 z"
   id="path101" />
		<path
   class="st3"
   d="m 1355,481.3 h 2.4 l 0.3,2 h 0.1 c 1.6,-1.3 3.5,-2.5 5.5,-2.5 4.5,0 6.9,3.5 6.9,8.9 0,6 -3.6,9.4 -7.6,9.4 -1.6,0 -3.2,-0.7 -4.8,-2 l 0.1,3 v 5.9 h -2.9 z m 12.1,8.4 c 0,-3.9 -1.3,-6.4 -4.6,-6.4 -1.4,0 -2.9,0.8 -4.6,2.4 v 9.2 c 1.5,1.3 3.1,1.8 4.2,1.8 2.9,-0.1 5,-2.7 5,-7 z"
   id="path102" />
		<path
   class="st3"
   d="m 1372.3,501.2 h 17 v 1.9 h -17 z"
   id="path103" />
		<path
   class="st3"
   d="m 1392.7,481.3 h 2.4 l 0.3,2 h 0.1 c 1.6,-1.3 3.5,-2.5 5.5,-2.5 4.5,0 6.9,3.5 6.9,8.9 0,6 -3.6,9.4 -7.6,9.4 -1.6,0 -3.2,-0.7 -4.8,-2 l 0.1,3 v 5.9 h -2.9 z m 12.2,8.4 c 0,-3.9 -1.3,-6.4 -4.6,-6.4 -1.4,0 -2.9,0.8 -4.6,2.4 v 9.2 c 1.5,1.3 3.1,1.8 4.2,1.8 2.8,-0.1 5,-2.7 5,-7 z"
   id="path104" />
		<path
   class="st3"
   d="m 1412.5,481.3 h 2.4 l 0.3,3.2 h 0.1 c 1.2,-2.2 3,-3.6 4.9,-3.6 0.8,0 1.3,0.1 1.9,0.4 l -0.5,2.5 c -0.6,-0.2 -1,-0.3 -1.7,-0.3 -1.4,0 -3.2,1.1 -4.4,4 v 11.2 h -2.9 v -17.4 z"
   id="path105" />
		<path
   class="st3"
   d="m 1423.7,490 c 0,-5.8 3.8,-9.2 8,-9.2 4.2,0 8,3.4 8,9.2 0,5.8 -3.8,9.1 -8,9.1 -4.2,0 -8,-3.3 -8,-9.1 z m 13.1,0 c 0,-4 -2,-6.7 -5.1,-6.7 -3.1,0 -5,2.7 -5,6.7 0,4 2,6.7 5,6.7 3,0 5.1,-2.7 5.1,-6.7 z"
   id="path106" />
		<path
   class="st3"
   d="m 1444.3,481.3 h 2.4 l 0.3,2 h 0.1 c 1.6,-1.3 3.5,-2.5 5.5,-2.5 4.5,0 6.9,3.5 6.9,8.9 0,6 -3.6,9.4 -7.6,9.4 -1.6,0 -3.2,-0.7 -4.8,-2 l 0.1,3 v 5.9 h -2.9 z m 12.2,8.4 c 0,-3.9 -1.3,-6.4 -4.6,-6.4 -1.4,0 -2.9,0.8 -4.6,2.4 v 9.2 c 1.5,1.3 3.1,1.8 4.2,1.8 2.9,-0.1 5,-2.7 5,-7 z"
   id="path107" />
		<path
   class="st3"
   d="m 1462.9,490 c 0,-5.8 3.8,-9.2 8,-9.2 4.2,0 8,3.4 8,9.2 0,5.8 -3.8,9.1 -8,9.1 -4.2,0 -8,-3.3 -8,-9.1 z m 13.1,0 c 0,-4 -2,-6.7 -5.1,-6.7 -3.1,0 -5,2.7 -5,6.7 0,4 2,6.7 5,6.7 3,0 5.1,-2.7 5.1,-6.7 z"
   id="path108" />
		<path
   class="st3"
   d="m 1481.7,496.7 1.4,-2 c 1.5,1.2 3.1,2.1 5.2,2.1 2.3,0 3.4,-1.2 3.4,-2.7 0,-1.8 -2,-2.6 -4,-3.3 -2.4,-0.9 -5.1,-2 -5.1,-5 0,-2.8 2.2,-4.9 6,-4.9 2.1,0 4.1,0.9 5.4,2 l -1.4,1.8 c -1.2,-0.9 -2.4,-1.5 -3.9,-1.5 -2.2,0 -3.2,1.2 -3.2,2.5 0,1.6 1.8,2.3 3.7,3 2.5,1 5.3,2 5.3,5.3 0,2.8 -2.2,5.2 -6.3,5.2 -2.5,-0.1 -4.9,-1.1 -6.5,-2.5 z"
   id="path109" />
		<path
   class="st3"
   d="m 1497.5,494.2 c 0,-3.8 3.3,-5.7 10.7,-6.5 0,-2.2 -0.7,-4.4 -3.6,-4.4 -2,0 -3.8,0.9 -5.2,1.9 l -1.1,-2 c 1.6,-1 4,-2.3 6.8,-2.3 4.3,0 6,2.8 6,7.1 v 10.7 h -2.4 l -0.3,-2.1 h -0.1 c -1.7,1.4 -3.6,2.5 -5.8,2.5 -2.9,0 -5,-1.8 -5,-4.9 z m 10.7,0.2 v -4.8 c -5.9,0.7 -7.8,2.1 -7.8,4.4 0,2 1.3,2.8 3.1,2.8 1.5,-0.1 3,-0.9 4.7,-2.4 z"
   id="path110" />
		<path
   class="st3"
   d="m 1516.6,495.2 v -22 h 2.9 v 22.2 c 0,0.9 0.4,1.2 0.8,1.2 0.2,0 0.3,0 0.6,-0.1 l 0.4,2.2 c -0.4,0.1 -0.9,0.3 -1.7,0.3 -2.1,0.1 -3,-1.3 -3,-3.8 z"
   id="path111" />
		<path
   class="st3"
   d="m 1525.7,488.7 c 0,-6.3 1.8,-11.4 4.7,-16.2 l 1.8,0.8 c -2.8,4.6 -4.1,10 -4.1,15.4 0,5.4 1.3,10.9 4.1,15.4 l -1.8,0.8 c -3,-4.7 -4.7,-9.9 -4.7,-16.2 z"
   id="path112" />
		<path
   class="st3"
   d="m 1534.9,504.1 c 2.8,-4.5 4.1,-10 4.1,-15.4 0,-5.4 -1.4,-10.8 -4.1,-15.4 l 1.8,-0.8 c 2.9,4.8 4.7,10 4.7,16.2 0,6.3 -1.8,11.5 -4.7,16.2 z"
   id="path113" />
		<path
   d="m 823.8,564 h 3.9 v -12.6 h -3.1 V 550 c 1.6,-0.3 2.7,-0.7 3.6,-1.3 h 1.7 V 564 h 3.5 v 1.8 h -9.6 z"
   id="path114" />
		<path
   d="m 836.7,564.5 c 0,-1 0.7,-1.7 1.6,-1.7 0.9,0 1.6,0.7 1.6,1.7 0,1 -0.7,1.7 -1.6,1.7 -0.9,0 -1.6,-0.7 -1.6,-1.7 z"
   id="path115" />
		<path
   d="m 863.6,545.7 v 4.6 h 2.5 v 1.7 h -2.5 v 1 c 0.6,0.8 2.4,3.6 2.7,4.4 l -1.1,1.3 c -0.3,-0.7 -1,-2.1 -1.6,-3.3 v 12.5 H 862 v -11.6 c -0.7,2.5 -1.6,4.9 -2.6,6.4 -0.2,-0.5 -0.6,-1.3 -0.9,-1.8 1.3,-2 2.7,-5.7 3.3,-8.9 h -3 v -1.7 h 3.1 v -4.6 z m 10.6,0.4 -0.5,0.9 c 1.7,2.3 4.7,5 7.1,6.4 -0.3,0.4 -0.7,1.2 -0.9,1.6 -2.4,-1.6 -5.2,-4.2 -7,-6.6 -1.8,2.8 -4.2,5.2 -6.7,6.9 -0.2,-0.4 -0.7,-1.1 -1.1,-1.5 3,-1.8 5.9,-4.9 7.5,-8.3 z m 0,18.9 c 1.3,-2.3 2.8,-6 3.6,-8.5 l 1.6,0.4 c -1,2.6 -2.4,5.9 -3.7,8.1 h 4.4 v 1.6 H 865.8 V 565 Z m -5.6,-8 c 0.7,1.8 1.4,4.2 1.6,5.7 l -1.5,0.4 c -0.2,-1.6 -0.9,-4 -1.5,-5.8 z m 8.4,-3.9 v 1.6 h -8.1 v -1.6 z m -3.7,3.4 c 0.5,1.8 0.9,4.2 1.1,5.7 l -1.5,0.3 c -0.1,-1.6 -0.5,-4 -1,-5.8 z"
   id="path116" />
		<path
   d="m 894.5,545.7 v 3 h 9.8 v 1.6 h -7.9 c 2.1,2.2 5.4,4.2 8.4,5.1 -0.4,0.3 -0.9,1 -1.2,1.5 -3.3,-1.2 -6.9,-3.7 -9.1,-6.5 v 4.9 h -1.8 v -4.9 c -2.2,2.9 -5.7,5.4 -9,6.7 -0.3,-0.4 -0.8,-1.1 -1.2,-1.4 3,-1 6.2,-3.1 8.2,-5.4 H 883 v -1.6 h 9.7 v -3 z m 9.5,19.7 v 1.6 h -20.5 v -1.6 z m -3.7,-9.3 v 7.8 H 887 v -7.8 z m -11.6,3.3 h 9.7 v -2 h -9.7 z m 0,3.3 h 9.7 v -2 h -9.7 z"
   id="path117" />
		<path
   class="st3"
   d="m 913.6,561.8 v -7.2 h -1.9 V 553 l 2.1,-0.1 0.2,-3.7 h 1.8 v 3.7 h 3.6 v 1.8 h -3.6 v 7.3 c 0,1.6 0.5,2.5 2,2.5 0.5,0 1.1,-0.2 1.5,-0.4 l 0.4,1.7 c -0.7,0.2 -1.6,0.5 -2.4,0.5 -2.7,-0.1 -3.7,-1.8 -3.7,-4.5 z"
   id="path118" />
		<path
   class="st3"
   d="m 922.3,552.8 h 1.8 l 0.2,2.4 v 0 c 0.9,-1.7 2.3,-2.7 3.7,-2.7 0.6,0 1,0.1 1.4,0.3 l -0.4,1.9 c -0.4,-0.1 -0.7,-0.2 -1.3,-0.2 -1.1,0 -2.4,0.8 -3.3,3 v 8.4 h -2.2 v -13.1 z"
   id="path119" />
		<path
   class="st3"
   d="m 930.8,562.5 c 0,-2.8 2.4,-4.2 8,-4.9 0,-1.7 -0.6,-3.3 -2.7,-3.3 -1.5,0 -2.9,0.7 -3.9,1.4 l -0.8,-1.5 c 1.2,-0.8 3,-1.7 5.1,-1.7 3.2,0 4.5,2.1 4.5,5.4 v 8 h -1.8 l -0.2,-1.6 h -0.1 c -1.2,1 -2.7,1.9 -4.3,1.9 -2.2,0 -3.8,-1.4 -3.8,-3.7 z m 8,0.2 v -3.6 c -4.4,0.5 -5.9,1.6 -5.9,3.3 0,1.5 1,2.1 2.3,2.1 1.3,-0.1 2.3,-0.7 3.6,-1.8 z"
   id="path120" />
		<path
   class="st3"
   d="m 945.1,552.8 h 1.8 l 0.2,1.9 v 0 c 1.2,-1.2 2.6,-2.2 4.4,-2.2 2.7,0 4,1.8 4,5.1 v 8.3 h -2.2 v -8 c 0,-2.4 -0.7,-3.5 -2.5,-3.5 -1.3,0 -2.3,0.7 -3.6,2 v 9.5 H 945 v -13.1 z"
   id="path121" />
		<path
   class="st3"
   d="m 958.3,564.4 1.1,-1.5 c 1.2,0.9 2.3,1.6 3.9,1.6 1.7,0 2.6,-0.9 2.6,-2 0,-1.3 -1.5,-1.9 -3,-2.5 -1.8,-0.7 -3.8,-1.5 -3.8,-3.8 0,-2.1 1.6,-3.7 4.5,-3.7 1.6,0 3,0.7 4,1.5 l -1.1,1.4 c -0.9,-0.6 -1.8,-1.2 -3,-1.2 -1.7,0 -2.4,0.9 -2.4,1.9 0,1.2 1.3,1.7 2.8,2.3 1.9,0.7 4,1.5 4,4 0,2.1 -1.7,3.9 -4.7,3.9 -1.9,-0.1 -3.7,-0.9 -4.9,-1.9 z"
   id="path122" />
		<path
   class="st3"
   d="m 970.2,562.5 c 0,-2.8 2.4,-4.2 8,-4.9 0,-1.7 -0.6,-3.3 -2.7,-3.3 -1.5,0 -2.9,0.7 -3.9,1.4 l -0.8,-1.5 c 1.2,-0.8 3,-1.7 5.1,-1.7 3.2,0 4.5,2.1 4.5,5.4 v 8 h -1.8 l -0.2,-1.6 h -0.1 c -1.2,1 -2.7,1.9 -4.3,1.9 -2.2,0 -3.8,-1.4 -3.8,-3.7 z m 8,0.2 v -3.6 c -4.4,0.5 -5.9,1.6 -5.9,3.3 0,1.5 1,2.1 2.3,2.1 1.3,-0.1 2.3,-0.7 3.6,-1.8 z"
   id="path123" />
		<path
   class="st3"
   d="m 983.5,559.4 c 0,-4.3 2.9,-6.9 6.3,-6.9 1.7,0 2.9,0.7 3.8,1.5 l -1.1,1.4 c -0.7,-0.7 -1.6,-1.1 -2.6,-1.1 -2.4,0 -4.1,2 -4.1,5 0,3 1.6,5 4,5 1.2,0 2.3,-0.6 3.1,-1.3 l 1,1.5 c -1.2,1 -2.7,1.6 -4.2,1.6 -3.5,0.1 -6.2,-2.4 -6.2,-6.7 z"
   id="path124" />
		<path
   class="st3"
   d="m 997.1,561.8 v -7.2 h -1.9 V 553 l 2.1,-0.1 0.2,-3.7 h 1.8 v 3.7 h 3.6 v 1.8 h -3.6 v 7.3 c 0,1.6 0.5,2.5 2,2.5 0.5,0 1.1,-0.2 1.5,-0.4 l 0.4,1.7 c -0.7,0.2 -1.6,0.5 -2.4,0.5 -2.7,-0.1 -3.7,-1.8 -3.7,-4.5 z"
   id="path125" />
		<path
   class="st3"
   d="m 1005.5,548.7 c 0,-0.8 0.6,-1.4 1.4,-1.4 0.8,0 1.5,0.6 1.5,1.4 0,0.9 -0.6,1.5 -1.5,1.5 -0.9,0 -1.4,-0.6 -1.4,-1.5 z m 0.3,4.1 h 2.2 v 13 h -2.2 z"
   id="path126" />
		<path
   class="st3"
   d="m 1011.4,559.4 c 0,-4.3 2.8,-6.9 6,-6.9 3.2,0 6,2.5 6,6.9 0,4.3 -2.8,6.8 -6,6.8 -3.2,0 -6,-2.5 -6,-6.8 z m 9.9,0 c 0,-3 -1.5,-5 -3.8,-5 -2.3,0 -3.8,2 -3.8,5 0,3 1.5,5 3.8,5 2.2,0 3.8,-2 3.8,-5 z"
   id="path127" />
		<path
   class="st3"
   d="m 1026.9,552.8 h 1.8 l 0.2,1.9 v 0 c 1.2,-1.2 2.6,-2.2 4.4,-2.2 2.7,0 4,1.8 4,5.1 v 8.3 h -2.2 v -8 c 0,-2.4 -0.7,-3.5 -2.5,-3.5 -1.3,0 -2.3,0.7 -3.6,2 v 9.5 h -2.2 v -13.1 z"
   id="path128" />
		<path
   class="st3"
   d="m 1039.7,567.8 h 12.8 v 1.4 h -12.8 z"
   id="path129" />
		<path
   class="st3"
   d="m 1054,559.4 c 0,-4.3 2.9,-6.9 6.3,-6.9 1.7,0 2.9,0.7 3.8,1.5 l -1.1,1.4 c -0.7,-0.7 -1.6,-1.1 -2.6,-1.1 -2.4,0 -4.1,2 -4.1,5 0,3 1.6,5 4,5 1.2,0 2.3,-0.6 3.1,-1.3 l 1,1.5 c -1.2,1 -2.7,1.6 -4.2,1.6 -3.5,0.1 -6.2,-2.4 -6.2,-6.7 z"
   id="path130" />
		<path
   class="st3"
   d="m 1066.3,559.4 c 0,-4.3 2.8,-6.9 6,-6.9 3.2,0 6,2.5 6,6.9 0,4.3 -2.8,6.8 -6,6.8 -3.2,0 -6,-2.5 -6,-6.8 z m 9.8,0 c 0,-3 -1.5,-5 -3.8,-5 -2.3,0 -3.8,2 -3.8,5 0,3 1.5,5 3.8,5 2.3,0 3.8,-2 3.8,-5 z"
   id="path131" />
		<path
   class="st3"
   d="m 1081.8,552.8 h 1.8 l 0.2,1.9 v 0 c 1.2,-1.2 2.6,-2.2 4.4,-2.2 2.7,0 4,1.8 4,5.1 v 8.3 h -2.2 v -8 c 0,-2.4 -0.7,-3.5 -2.5,-3.5 -1.3,0 -2.3,0.7 -3.6,2 v 9.5 h -2.2 v -13.1 z"
   id="path132" />
		<path
   class="st3"
   d="m 1096.8,561.8 v -7.2 h -1.9 V 553 l 2.1,-0.1 0.2,-3.7 h 1.8 v 3.7 h 3.6 v 1.8 h -3.6 v 7.3 c 0,1.6 0.5,2.5 2,2.5 0.5,0 1.1,-0.2 1.5,-0.4 l 0.4,1.7 c -0.7,0.2 -1.6,0.5 -2.4,0.5 -2.8,-0.1 -3.7,-1.8 -3.7,-4.5 z"
   id="path133" />
		<path
   class="st3"
   d="m 1104.5,559.4 c 0,-4.2 2.9,-6.9 5.8,-6.9 3.3,0 5.2,2.4 5.2,6.1 0,0.5 0,0.9 -0.1,1.2 h -8.8 c 0.1,2.8 1.8,4.6 4.3,4.6 1.3,0 2.3,-0.4 3.3,-1 l 0.8,1.5 c -1.1,0.7 -2.5,1.3 -4.3,1.3 -3.4,0 -6.2,-2.5 -6.2,-6.8 z m 9.1,-1.1 c 0,-2.6 -1.2,-4.1 -3.2,-4.1 -1.8,0 -3.5,1.5 -3.7,4.1 z"
   id="path134" />
		<path
   class="st3"
   d="m 1117.3,564.4 1.1,-1.5 c 1.2,0.9 2.3,1.6 3.9,1.6 1.7,0 2.6,-0.9 2.6,-2 0,-1.3 -1.5,-1.9 -3,-2.5 -1.8,-0.7 -3.8,-1.5 -3.8,-3.8 0,-2.1 1.6,-3.7 4.5,-3.7 1.6,0 3,0.7 4,1.5 l -1.1,1.4 c -0.9,-0.6 -1.8,-1.2 -3,-1.2 -1.7,0 -2.4,0.9 -2.4,1.9 0,1.2 1.3,1.7 2.8,2.3 1.9,0.7 4,1.5 4,4 0,2.1 -1.7,3.9 -4.7,3.9 -1.9,-0.1 -3.7,-0.9 -4.9,-1.9 z"
   id="path135" />
		<path
   class="st3"
   d="m 1130.4,561.8 v -7.2 h -1.9 V 553 l 2.1,-0.1 0.2,-3.7 h 1.8 v 3.7 h 3.6 v 1.8 h -3.6 v 7.3 c 0,1.6 0.5,2.5 2,2.5 0.5,0 1.1,-0.2 1.5,-0.4 l 0.4,1.7 c -0.7,0.2 -1.6,0.5 -2.4,0.5 -2.8,-0.1 -3.7,-1.8 -3.7,-4.5 z"
   id="path136" />
		<path
   class="st3"
   d="m 1138.6,554.8 c 0,-1 0.7,-1.7 1.6,-1.7 0.9,0 1.6,0.7 1.6,1.7 0,1 -0.7,1.7 -1.6,1.7 -0.9,0 -1.6,-0.7 -1.6,-1.7 z m 0,9.7 c 0,-1 0.7,-1.7 1.6,-1.7 0.9,0 1.6,0.7 1.6,1.7 0,1 -0.7,1.7 -1.6,1.7 -0.9,0 -1.6,-0.7 -1.6,-1.7 z"
   id="path137" />
		<path
   class="st3"
   d="m 1145.3,554.8 c 0,-1 0.7,-1.7 1.6,-1.7 0.9,0 1.6,0.7 1.6,1.7 0,1 -0.7,1.7 -1.6,1.7 -0.9,0 -1.6,-0.7 -1.6,-1.7 z m 0,9.7 c 0,-1 0.7,-1.7 1.6,-1.7 0.9,0 1.6,0.7 1.6,1.7 0,1 -0.7,1.7 -1.6,1.7 -0.9,0 -1.6,-0.7 -1.6,-1.7 z"
   id="path138" />
		<path
   class="st3"
   d="m 1151.4,568.4 c 0,-1.1 0.7,-2.2 1.9,-3 v -0.1 c -0.7,-0.4 -1.2,-1.1 -1.2,-2.1 0,-1.1 0.7,-1.9 1.4,-2.4 v -0.1 c -0.9,-0.7 -1.7,-1.9 -1.7,-3.5 0,-2.9 2.3,-4.7 4.9,-4.7 0.7,0 1.4,0.1 1.8,0.3 h 4.5 v 1.7 h -2.7 c 0.6,0.6 1.1,1.6 1.1,2.7 0,2.8 -2.1,4.5 -4.8,4.5 -0.6,0 -1.3,-0.2 -1.9,-0.5 -0.5,0.4 -0.8,0.8 -0.8,1.6 0,0.8 0.5,1.4 2.3,1.4 h 2.6 c 3,0 4.5,0.9 4.5,3.1 0,2.4 -2.6,4.5 -6.6,4.5 -3.1,0.1 -5.3,-1.2 -5.3,-3.4 z m 9.8,-0.7 c 0,-1.2 -0.9,-1.7 -2.6,-1.7 h -2.3 c -0.5,0 -1.1,0 -1.7,-0.2 -0.9,0.7 -1.3,1.5 -1.3,2.2 0,1.4 1.4,2.3 3.8,2.3 2.5,0.1 4.1,-1.2 4.1,-2.6 z m -1.7,-10.5 c 0,-1.9 -1.2,-3 -2.8,-3 -1.5,0 -2.8,1.1 -2.8,3 0,1.9 1.3,3.1 2.8,3.1 1.6,0 2.8,-1.2 2.8,-3.1 z"
   id="path139" />
		<path
   class="st3"
   d="m 1165,559.4 c 0,-4.2 2.9,-6.9 5.8,-6.9 3.3,0 5.2,2.4 5.2,6.1 0,0.5 0,0.9 -0.1,1.2 h -8.8 c 0.1,2.8 1.8,4.6 4.3,4.6 1.3,0 2.3,-0.4 3.3,-1 l 0.8,1.5 c -1.1,0.7 -2.5,1.3 -4.3,1.3 -3.5,0 -6.2,-2.5 -6.2,-6.8 z m 9.1,-1.1 c 0,-2.6 -1.2,-4.1 -3.2,-4.1 -1.8,0 -3.5,1.5 -3.7,4.1 z"
   id="path140" />
		<path
   class="st3"
   d="m 1179.6,561.8 v -7.2 h -1.9 V 553 l 2.1,-0.1 0.2,-3.7 h 1.8 v 3.7 h 3.6 v 1.8 h -3.6 v 7.3 c 0,1.6 0.5,2.5 2,2.5 0.5,0 1.1,-0.2 1.5,-0.4 l 0.4,1.7 c -0.7,0.2 -1.6,0.5 -2.4,0.5 -2.8,-0.1 -3.7,-1.8 -3.7,-4.5 z"
   id="path141" />
		<path
   class="st3"
   d="m 1186.4,567.8 h 12.8 v 1.4 h -12.8 z"
   id="path142" />
		<path
   class="st3"
   d="m 1200.2,564.4 1.1,-1.5 c 1.2,0.9 2.3,1.6 3.9,1.6 1.7,0 2.6,-0.9 2.6,-2 0,-1.3 -1.5,-1.9 -3,-2.5 -1.8,-0.7 -3.8,-1.5 -3.8,-3.8 0,-2.1 1.6,-3.7 4.5,-3.7 1.6,0 3,0.7 4,1.5 l -1.1,1.4 c -0.9,-0.6 -1.8,-1.2 -3,-1.2 -1.7,0 -2.4,0.9 -2.4,1.9 0,1.2 1.3,1.7 2.8,2.3 1.9,0.7 4,1.5 4,4 0,2.1 -1.7,3.9 -4.7,3.9 -1.9,-0.1 -3.6,-0.9 -4.9,-1.9 z"
   id="path143" />
		<path
   class="st3"
   d="m 1211.9,559.4 c 0,-4.3 2.9,-6.9 6.3,-6.9 1.7,0 2.9,0.7 3.8,1.5 l -1.1,1.4 c -0.7,-0.7 -1.6,-1.1 -2.6,-1.1 -2.4,0 -4.1,2 -4.1,5 0,3 1.6,5 4,5 1.2,0 2.3,-0.6 3.1,-1.3 l 1,1.5 c -1.2,1 -2.7,1.6 -4.2,1.6 -3.5,0.1 -6.2,-2.4 -6.2,-6.7 z"
   id="path144" />
		<path
   class="st3"
   d="m 1225.1,552.8 h 1.8 l 0.2,2.4 v 0 c 0.9,-1.7 2.3,-2.7 3.7,-2.7 0.6,0 1,0.1 1.4,0.3 l -0.4,1.9 c -0.4,-0.1 -0.7,-0.2 -1.3,-0.2 -1.1,0 -2.4,0.8 -3.3,3 v 8.4 h -2.2 v -13.1 z"
   id="path145" />
		<path
   class="st3"
   d="m 1234.1,548.7 c 0,-0.8 0.6,-1.4 1.4,-1.4 0.8,0 1.5,0.6 1.5,1.4 0,0.9 -0.6,1.5 -1.5,1.5 -0.9,0 -1.4,-0.6 -1.4,-1.5 z m 0.4,4.1 h 2.2 v 13 h -2.2 z"
   id="path146" />
		<path
   class="st3"
   d="m 1241.1,552.8 h 1.8 l 0.2,1.5 v 0 c 1.2,-1 2.6,-1.8 4.2,-1.8 3.4,0 5.2,2.6 5.2,6.6 0,4.5 -2.7,7 -5.7,7 -1.2,0 -2.4,-0.5 -3.6,-1.5 l 0.1,2.3 v 4.4 h -2.2 z m 9.1,6.4 c 0,-2.9 -1,-4.8 -3.5,-4.8 -1.1,0 -2.2,0.6 -3.5,1.8 v 6.9 c 1.2,1 2.3,1.3 3.2,1.3 2.2,-0.1 3.8,-2 3.8,-5.2 z"
   id="path147" />
		<path
   class="st3"
   d="m 1256.3,561.8 v -7.2 h -1.9 V 553 l 2.1,-0.1 0.2,-3.7 h 1.8 v 3.7 h 3.6 v 1.8 h -3.6 v 7.3 c 0,1.6 0.5,2.5 2,2.5 0.5,0 1.1,-0.2 1.5,-0.4 l 0.4,1.7 c -0.7,0.2 -1.6,0.5 -2.4,0.5 -2.7,-0.1 -3.7,-1.8 -3.7,-4.5 z"
   id="path148" />
		<path
   class="st3"
   d="m 1263.1,567.8 h 12.8 v 1.4 h -12.8 z"
   id="path149" />
		<path
   class="st3"
   d="m 1278.4,546.8 h 2.2 v 5.2 l -0.1,2.7 c 1.2,-1.2 2.5,-2.2 4.3,-2.2 2.7,0 4,1.8 4,5.1 v 8.3 h -2.2 v -8 c 0,-2.4 -0.7,-3.5 -2.5,-3.5 -1.3,0 -2.3,0.7 -3.6,2 v 9.5 h -2.2 v -19.1 z"
   id="path150" />
		<path
   class="st3"
   d="m 1292.2,562.5 c 0,-2.8 2.4,-4.2 8,-4.9 0,-1.7 -0.6,-3.3 -2.7,-3.3 -1.5,0 -2.9,0.7 -3.9,1.4 l -0.8,-1.5 c 1.2,-0.8 3,-1.7 5.1,-1.7 3.2,0 4.5,2.1 4.5,5.4 v 8 h -1.8 l -0.2,-1.6 h -0.1 c -1.2,1 -2.7,1.9 -4.3,1.9 -2.2,0 -3.8,-1.4 -3.8,-3.7 z m 8,0.2 v -3.6 c -4.4,0.5 -5.9,1.6 -5.9,3.3 0,1.5 1,2.1 2.3,2.1 1.2,-0.1 2.3,-0.7 3.6,-1.8 z"
   id="path151" />
		<path
   class="st3"
   d="m 1305,564.4 1.1,-1.5 c 1.2,0.9 2.3,1.6 3.9,1.6 1.7,0 2.6,-0.9 2.6,-2 0,-1.3 -1.5,-1.9 -3,-2.5 -1.8,-0.7 -3.8,-1.5 -3.8,-3.8 0,-2.1 1.6,-3.7 4.5,-3.7 1.6,0 3,0.7 4,1.5 l -1.1,1.4 c -0.9,-0.6 -1.8,-1.2 -3,-1.2 -1.7,0 -2.4,0.9 -2.4,1.9 0,1.2 1.3,1.7 2.8,2.3 1.9,0.7 4,1.5 4,4 0,2.1 -1.7,3.9 -4.7,3.9 -1.9,-0.1 -3.6,-0.9 -4.9,-1.9 z"
   id="path152" />
		<path
   class="st3"
   d="m 1317.7,546.8 h 2.2 v 5.2 l -0.1,2.7 c 1.2,-1.2 2.5,-2.2 4.3,-2.2 2.7,0 4,1.8 4,5.1 v 8.3 h -2.2 v -8 c 0,-2.4 -0.7,-3.5 -2.5,-3.5 -1.3,0 -2.3,0.7 -3.6,2 v 9.5 h -2.2 v -19.1 z"
   id="path153" />
		<path
   class="st3"
   d="m 1332.3,558.4 c 0,-4.7 1.3,-8.6 3.5,-12.2 l 1.3,0.6 c -2.1,3.4 -3,7.5 -3,11.5 0,4.1 1,8.2 3,11.6 l -1.3,0.6 c -2.2,-3.5 -3.5,-7.4 -3.5,-12.1 z"
   id="path154" />
		<path
   class="st3"
   d="m 1339.2,570 c 2.1,-3.4 3.1,-7.5 3.1,-11.6 0,-4.1 -1,-8.1 -3.1,-11.5 l 1.4,-0.6 c 2.2,3.6 3.5,7.5 3.5,12.2 0,4.7 -1.3,8.6 -3.5,12.2 z"
   id="path155" />
		<path
   d="m 1359,558.9 c -0.2,0.8 -0.4,1.6 -0.6,2.4 0.9,2.2 2.5,3.3 4.6,3.9 v -7.3 h -9.9 v -1.6 h 21.2 v 1.6 h -9.5 v 2.7 h 8 v 1.6 h -8 v 3.3 c 0.9,0.1 1.8,0.1 2.8,0.1 0.9,0 5.9,0 7.2,0 -0.3,0.4 -0.6,1.2 -0.7,1.7 h -6.6 c -4.8,0 -7.9,-0.7 -9.9,-4.1 -0.9,1.9 -2.2,3.4 -3.7,4.6 -0.3,-0.3 -1,-1 -1.4,-1.2 2.5,-1.7 4.1,-4.4 4.7,-7.9 z m 12.7,-12.2 v 7.9 h -16.1 v -7.9 z m -14.4,3.3 h 12.5 v -1.9 h -12.5 z m 0,3.3 h 12.5 v -2 h -12.5 z"
   id="path156" />
		<path
   d="m 1398.1,547.1 v 1.7 h -7.8 c -0.5,0.6 -1.1,1.3 -1.8,1.9 v 7.4 h -1.8 v -5.8 c -2.7,2.1 -5.9,3.7 -9,4.9 -0.3,-0.4 -0.9,-1.3 -1.3,-1.6 4.3,-1.4 8.6,-3.7 11.4,-6.7 h -10.6 v -1.7 h 20.9 z m -2.5,11.6 v 9 h -1.9 v -1.1 h -11.9 v 1.2 h -1.8 v -9.1 z m -1.9,6.3 v -4.7 h -11.9 v 4.7 z m -2.8,-13.9 c 2.7,1.1 6,3 7.8,4.3 l -1.3,1.4 c -1.7,-1.4 -5.1,-3.3 -7.8,-4.5 z"
   id="path157" />
		<path
   d="m 1416,560.2 v 1.7 h -15 v -1.7 z m -8.3,-13.8 -0.5,2.6 h 13.5 v 1.7 h -13.8 c -0.3,1.5 -0.6,3 -0.9,4.3 h 15.1 c 0,0 0,0.6 -0.1,0.9 -0.7,6.9 -1.3,9.6 -2.4,10.7 -0.6,0.6 -1.2,0.8 -2.3,0.8 -0.9,0 -2.6,0 -4.3,-0.1 0,-0.6 -0.3,-1.3 -0.7,-1.8 1.9,0.2 3.7,0.2 4.4,0.2 0.6,0 0.9,0 1.2,-0.3 0.9,-0.7 1.5,-3.2 2.1,-8.7 h -13.5 -0.4 -1.5 c 0.7,-2.7 1.7,-7.2 2.3,-10.5 z"
   id="path158" />
		<path
   d="m 1442.6,565 v -3.7 h -14.9 v -1.7 h 14.9 V 556 h -15.7 v -1.8 h 7.8 v -8.5 h 2 v 8.5 h 7.9 v 13.6 h -1.9 v -1.1 h -16.2 V 565 Z m -14.4,-18.2 c 1.3,1.7 2.6,3.9 3.2,5.4 l -1.7,0.8 c -0.5,-1.6 -1.8,-3.9 -3.1,-5.6 z m 16.6,0.4 c -1,2 -2.4,4.4 -3.5,6 l -1.6,-0.6 c 1,-1.6 2.4,-4.2 3.1,-6 z"
   id="path159" />
		<path
   d="m 1466.9,546.2 c -0.7,1.1 -1.4,2.3 -2.1,3.3 h 5.6 v 1.7 h -21.5 v -1.7 h 5.9 c -0.5,-0.9 -1.3,-2.2 -2.2,-3.2 l 1.7,-0.6 c 0.9,1 1.9,2.4 2.4,3.4 l -1.2,0.4 h 7.2 c 0.8,-1.2 1.7,-2.7 2.3,-3.9 z m -7.7,7.1 v 12.4 c 0,0.9 -0.2,1.4 -0.9,1.7 -0.6,0.3 -1.7,0.3 -3.3,0.3 -0.1,-0.5 -0.4,-1.2 -0.6,-1.6 1.2,0 2.3,0 2.6,0 0.3,0 0.4,-0.1 0.4,-0.4 v -3.2 h -5.3 v 5.2 h -1.7 v -14.4 z m -1.7,1.6 h -5.3 v 2.4 h 5.3 z m -5.3,3.7 v 2.4 h 5.3 v -2.4 z m 11.7,-5.1 v 9.8 h -1.7 v -9.8 z m 4.9,-0.7 v 12.7 c 0,1 -0.3,1.5 -1,1.8 -0.7,0.3 -1.9,0.3 -3.8,0.3 -0.1,-0.5 -0.4,-1.2 -0.6,-1.7 1.5,0 2.8,0 3.2,0 0.4,0 0.5,-0.1 0.5,-0.5 v -12.7 h 1.7 z"
   id="path160" />
		<path
   d="m 1477.6,545.7 v 5 h 2.5 v 1.7 h -2.5 v 4.5 l 2.5,-0.8 0.3,1.7 -2.8,0.9 v 6.8 c 0,1 -0.2,1.5 -0.8,1.8 -0.6,0.3 -1.5,0.4 -3,0.4 -0.1,-0.5 -0.3,-1.2 -0.5,-1.7 1.1,0 2,0 2.3,0 0.3,0 0.4,-0.1 0.4,-0.4 v -6.3 l -2.9,0.9 -0.5,-1.8 3.4,-1 v -5.1 h -3 v -1.7 h 3 v -5 h 1.6 z m 8.5,0 c 0,1.8 0,3.6 0,5.2 h 5.5 c -0.2,10 -0.3,15.2 1.1,15.2 0.4,0 0.6,-0.8 0.7,-3.2 0.4,0.3 1.1,0.7 1.5,0.8 -0.2,3.2 -0.8,4.1 -2.3,4.1 -3.1,0 -2.9,-5.7 -2.8,-15.3 h -3.7 c -0.1,2 -0.2,3.8 -0.5,5.5 1.6,0.9 3,1.8 3.9,2.6 l -1.1,1.4 c -0.8,-0.6 -1.9,-1.4 -3.2,-2.3 -0.9,3.5 -2.5,6.1 -5.6,8.2 -0.2,-0.3 -0.9,-1.1 -1.3,-1.5 3,-1.8 4.5,-4.3 5.3,-7.7 -1,-0.6 -2,-1.2 -3,-1.8 l 1,-1.2 2.3,1.3 c 0.2,-1.4 0.3,-2.9 0.4,-4.5 h -3.7 v -1.7 h 3.7 c 0,-1.6 0,-3.3 0,-5.2 h 1.8 z"
   id="path161" />
		<path
   d="m 1504.7,551.5 c -0.8,1.2 -1.7,2.5 -2.7,3.7 v 12.7 h -1.8 v -10.7 c -0.9,0.9 -1.8,1.8 -2.7,2.5 -0.3,-0.4 -0.9,-1.2 -1.3,-1.5 2.5,-1.8 5.1,-4.6 6.8,-7.3 z m -0.9,-5.1 c -1.6,2.1 -4.1,4.4 -6.2,6 -0.2,-0.4 -0.7,-1.1 -1.1,-1.4 2,-1.4 4.3,-3.5 5.6,-5.3 z m 14.8,7.4 v 1.7 h -3.6 v 10 c 0,1.1 -0.3,1.7 -1.1,2 -0.8,0.3 -2.2,0.3 -4.5,0.3 -0.1,-0.5 -0.3,-1.2 -0.6,-1.8 1.7,0.1 3.3,0.1 3.8,0 0.5,0 0.6,-0.1 0.6,-0.5 v -10 h -8.1 v -1.7 z m -0.7,-6.7 v 1.7 h -11.8 v -1.7 z"
   id="path162" />
		<path
   d="m 1527.7,548 v 13.4 h -4.6 v 2.3 h -1.7 V 548 Z m -4.6,11.7 h 2.9 v -10.1 h -2.9 z m 13.4,-13.5 -0.3,0.7 c 1.4,2.9 4,5.8 6.6,7.2 -0.4,0.4 -1,1 -1.3,1.5 -0.7,-0.5 -1.5,-1.1 -2.2,-1.8 v 1.5 h -7.9 v -1.2 c -0.7,0.6 -1.4,1.2 -2.2,1.8 -0.3,-0.4 -0.9,-1 -1.3,-1.3 3.2,-2.1 5.7,-5.4 6.9,-8.8 z m 3.9,11.7 v 9.8 h -1.8 v -1.2 h -6.6 v 1.3 h -1.8 v -9.9 z m -5,-9.3 c -0.9,1.8 -2.1,3.5 -3.6,5 h 7.2 c -1.3,-1.4 -2.5,-3.2 -3.6,-5 z m 3.1,16.3 v -5.4 h -6.6 v 5.4 z"
   id="path163" />
		<path
   d="m 1548.7,546.1 c 2.4,0.6 5.2,1.5 7.8,2.4 2.2,-0.8 4.1,-1.8 5.6,-2.8 l 1.5,1 c -1.4,1 -3.1,1.9 -4.9,2.6 2.1,0.8 4.1,1.6 5.6,2.3 l -1.3,1.3 c -1.6,-0.8 -3.9,-1.8 -6.5,-2.7 -0.8,0.3 -1.6,0.6 -2.4,0.8 l 1,0.3 c -0.3,0.8 -0.7,1.6 -1.1,2.4 h 12.1 v 1.6 h -13 c -0.6,1 -1.4,2 -2.2,3 h 4.6 v -2.4 h 1.7 v 2.4 h 7 v 6.1 c 0,0.9 -0.2,1.4 -0.9,1.7 -0.7,0.3 -1.8,0.3 -3.7,0.3 -0.1,-0.5 -0.3,-1.1 -0.6,-1.6 1.4,0 2.6,0 2.9,0 0.3,0 0.5,-0.1 0.5,-0.4 V 560 h -5.2 v 8 h -1.7 v -8 h -4.8 v 6.6 h -1.8 v -6.2 c -1.1,1 -2.2,1.8 -3.4,2.5 -0.3,-0.4 -0.8,-1 -1.2,-1.4 2.7,-1.5 5,-3.7 6.6,-6.1 h -6.1 v -1.6 h 7.1 c 0.4,-0.8 0.8,-1.6 1.1,-2.4 -2,0.6 -4.1,1.1 -6,1.5 -0.3,-0.4 -0.8,-1.2 -1.2,-1.5 2.7,-0.5 5.6,-1.1 8.3,-2 -2.3,-0.8 -4.6,-1.5 -6.7,-2.1 z"
   id="path164" />
		<path
   d="m 1574.6,545.7 v 5.1 h 3.4 v 1.7 h -3.4 v 2.2 c 0.8,0.8 3,3.4 3.6,4.1 l -1.1,1.5 c -0.5,-0.8 -1.5,-2.3 -2.4,-3.5 v 11 h -1.8 v -11.5 c -0.9,2.8 -2.2,5.4 -3.5,7.1 -0.2,-0.5 -0.6,-1.2 -0.9,-1.6 1.7,-2 3.4,-5.8 4.2,-9.1 H 1569 V 551 h 3.9 v -5.1 h 1.7 z m 15.3,1.4 v 20.4 h -1.8 v -1.4 h -7.3 v 1.5 h -1.8 v -20.5 z m -1.8,5.8 v -4 h -7.3 v 4 z m -7.3,5.8 h 7.3 v -4.2 h -7.3 z m 0,5.8 h 7.3 v -4.2 h -7.3 z"
   id="path165" />
		<path
   d="m 1613.6,547 v 18.6 c 0,1.1 -0.3,1.7 -1,2 -0.7,0.3 -1.9,0.3 -4,0.3 -0.1,-0.5 -0.4,-1.3 -0.6,-1.8 1.5,0 2.9,0 3.3,0 0.4,0 0.6,-0.2 0.6,-0.6 v -16.8 h -16.3 v 19.2 h -1.8 V 547 Z m -3.8,4.2 v 1.6 h -12.2 v -1.6 z m -1.3,4.1 v 7.6 h -8 v 1.8 h -1.7 v -9.4 z m -8,6.1 h 6.3 v -4.6 h -6.3 z"
   id="path166" />
		<path
   d="m 1624,563.7 c 0,2 -1.6,3.7 -3.7,3.7 -2,0 -3.6,-1.6 -3.6,-3.7 0,-2 1.7,-3.6 3.6,-3.6 2.1,-0.1 3.7,1.5 3.7,3.6 z m -1.2,0 c 0,-1.3 -1.1,-2.4 -2.4,-2.4 -1.3,0 -2.4,1.1 -2.4,2.4 0,1.4 1.1,2.4 2.4,2.4 1.3,0 2.4,-1.1 2.4,-2.4 z"
   id="path167" />
		<path
   d="m 822.7,593.4 c 5.2,-5.1 8.1,-8.2 8.1,-11 0,-1.9 -1.1,-3.3 -3.2,-3.3 -1.4,0 -2.7,0.9 -3.6,2 l -1.3,-1.2 c 1.4,-1.6 3,-2.6 5.2,-2.6 3.1,0 5.1,2 5.1,5 0,3.2 -3,6.4 -7,10.7 0.9,-0.1 2,-0.2 2.9,-0.2 h 5 v 1.9 h -11.1 v -1.3 z"
   id="path168" />
		<path
   d="m 836.7,593.3 c 0,-1 0.7,-1.7 1.6,-1.7 0.9,0 1.6,0.7 1.6,1.7 0,1 -0.7,1.7 -1.6,1.7 -0.9,0 -1.6,-0.7 -1.6,-1.7 z"
   id="path169" />
		<path
   d="m 869.5,574.6 v 2.9 c 0,0.9 0,1.9 -0.1,2.9 h 10 c 0,0 0,0.6 0,0.9 -0.4,9.6 -0.7,13 -1.7,14.1 -0.6,0.7 -1.1,0.9 -2,1 -0.8,0.1 -2.4,0 -3.8,0 0,-0.6 -0.3,-1.3 -0.6,-1.9 1.6,0.1 3.1,0.1 3.7,0.1 0.5,0 0.8,0 1.1,-0.3 0.7,-0.7 1.1,-4 1.4,-12.1 h -8.3 c -0.6,4.7 -2.5,10.1 -8.7,14.2 -0.3,-0.4 -1,-1 -1.4,-1.3 5.8,-3.7 7.7,-8.6 8.3,-12.8 h -7.6 v -1.8 h 7.8 c 0.1,-1 0.1,-2 0.1,-2.9 v -2.8 h 1.8 z m -6.3,0.6 c 1,1.1 2.1,2.5 2.6,3.5 l -1.6,0.8 c -0.5,-1 -1.6,-2.5 -2.5,-3.6 z m 8.1,9.8 c 1.2,1.4 2.7,3.4 3.4,4.6 l -1.6,0.9 c -0.6,-1.3 -2,-3.3 -3.3,-4.8 z"
   id="path170" />
		<path
   d="M 900.7,593.8 V 590 h -14.9 v -1.7 h 14.9 v -3.5 H 885 V 583 h 7.8 v -8.5 h 2 v 8.5 h 7.9 v 13.6 h -1.9 v -1.1 h -16.2 v -1.8 h 16.1 z m -14.4,-18.2 c 1.3,1.7 2.6,3.9 3.2,5.4 l -1.7,0.8 c -0.5,-1.6 -1.8,-3.9 -3.1,-5.6 z M 903,576 c -1,2 -2.4,4.4 -3.5,6 l -1.6,-0.6 c 1,-1.6 2.4,-4.2 3.1,-6 z"
   id="path171" />
		<path
   d="m 925.1,575 c -0.7,1.1 -1.4,2.3 -2.1,3.3 h 5.6 v 1.7 h -21.5 v -1.7 h 5.9 c -0.5,-0.9 -1.3,-2.2 -2.2,-3.2 l 1.7,-0.6 c 0.9,1 1.9,2.4 2.4,3.4 l -1.2,0.4 h 7.2 c 0.8,-1.2 1.7,-2.7 2.3,-3.9 z m -7.7,7.1 v 12.4 c 0,0.9 -0.2,1.4 -0.9,1.7 -0.6,0.3 -1.7,0.3 -3.3,0.3 -0.1,-0.5 -0.4,-1.2 -0.6,-1.6 1.2,0 2.3,0 2.6,0 0.3,0 0.4,-0.1 0.4,-0.4 v -3.2 h -5.3 v 5.2 h -1.7 v -14.4 z m -1.8,1.6 h -5.3 v 2.4 h 5.3 z m -5.3,3.7 v 2.4 h 5.3 v -2.4 z m 11.7,-5.1 v 9.8 h -1.7 v -9.8 z m 4.9,-0.7 v 12.7 c 0,1 -0.3,1.5 -1,1.8 -0.7,0.3 -1.9,0.3 -3.8,0.3 -0.1,-0.5 -0.4,-1.2 -0.6,-1.7 1.5,0 2.8,0 3.2,0 0.4,0 0.5,-0.1 0.5,-0.5 v -12.7 h 1.7 z"
   id="path172" />
		<path
   d="m 935.7,574.5 v 5 h 2.5 v 1.7 h -2.5 v 4.5 l 2.5,-0.8 0.3,1.7 -2.8,0.9 v 6.8 c 0,1 -0.2,1.5 -0.8,1.8 -0.6,0.3 -1.5,0.4 -3,0.4 -0.1,-0.5 -0.3,-1.2 -0.5,-1.7 1.1,0 2,0 2.3,0 0.3,0 0.4,-0.1 0.4,-0.4 v -6.3 l -2.9,0.9 -0.5,-1.8 3.4,-1 v -5.1 h -3 v -1.7 h 3 v -5 h 1.6 z m 8.5,0 c 0,1.8 0,3.6 0,5.2 h 5.5 c -0.2,10 -0.3,15.2 1.1,15.2 0.4,0 0.6,-0.8 0.7,-3.2 0.4,0.3 1.1,0.7 1.5,0.8 -0.2,3.2 -0.8,4.1 -2.3,4.1 -3.1,0 -2.9,-5.7 -2.8,-15.3 h -3.7 c -0.1,2 -0.2,3.8 -0.5,5.5 1.6,0.9 3,1.8 3.9,2.6 l -1.1,1.4 c -0.8,-0.6 -1.9,-1.4 -3.2,-2.3 -0.9,3.5 -2.5,6.1 -5.6,8.2 -0.2,-0.3 -0.9,-1.1 -1.3,-1.5 3,-1.8 4.5,-4.3 5.3,-7.7 -1,-0.6 -2,-1.2 -3,-1.8 l 1,-1.2 2.3,1.3 c 0.2,-1.4 0.3,-2.9 0.4,-4.5 h -3.7 v -1.7 h 3.7 c 0,-1.6 0,-3.3 0,-5.2 h 1.8 z"
   id="path173" />
		<path
   d="m 962.9,580.3 c -0.8,1.2 -1.7,2.5 -2.7,3.7 v 12.7 h -1.8 V 586 c -0.9,0.9 -1.8,1.8 -2.7,2.5 -0.3,-0.4 -0.9,-1.2 -1.3,-1.5 2.5,-1.8 5.1,-4.6 6.8,-7.3 z m -1,-5.1 c -1.6,2.1 -4.1,4.4 -6.2,6 -0.2,-0.4 -0.7,-1.1 -1.1,-1.4 2,-1.4 4.3,-3.5 5.6,-5.3 z m 14.8,7.4 v 1.7 h -3.6 v 10 c 0,1.1 -0.3,1.7 -1.1,2 -0.8,0.3 -2.2,0.3 -4.5,0.3 -0.1,-0.5 -0.3,-1.2 -0.6,-1.8 1.7,0.1 3.3,0.1 3.8,0 0.5,0 0.6,-0.1 0.6,-0.5 v -10 h -8.1 v -1.7 z m -0.7,-6.7 v 1.7 h -11.8 v -1.7 z"
   id="path174" />
		<path
   d="m 985.8,576.8 v 13.4 h -4.6 v 2.3 h -1.7 v -15.7 z m -4.6,11.7 h 2.9 v -10.1 h -2.9 z m 13.4,-13.5 -0.3,0.7 c 1.4,2.9 4,5.8 6.6,7.2 -0.4,0.4 -1,1 -1.3,1.5 -0.7,-0.5 -1.5,-1.1 -2.2,-1.8 v 1.5 h -7.9 v -1.2 c -0.7,0.6 -1.4,1.2 -2.2,1.8 -0.3,-0.4 -0.9,-1 -1.3,-1.3 3.2,-2.1 5.7,-5.4 6.9,-8.8 z m 3.9,11.7 v 9.8 h -1.8 v -1.2 h -6.6 v 1.3 h -1.8 v -9.9 z m -4.9,-9.3 c -0.9,1.8 -2.1,3.5 -3.6,5 h 7.2 c -1.3,-1.4 -2.6,-3.2 -3.6,-5 z m 3.1,16.3 v -5.4 h -6.6 v 5.4 z"
   id="path175" />
		<path
   d="m 1006.8,574.9 c 2.4,0.6 5.2,1.5 7.8,2.4 2.2,-0.8 4.1,-1.8 5.6,-2.8 l 1.5,1 c -1.4,1 -3.1,1.9 -4.9,2.6 2.1,0.8 4.1,1.6 5.6,2.3 l -1.3,1.3 c -1.6,-0.8 -3.9,-1.8 -6.5,-2.7 -0.8,0.3 -1.6,0.6 -2.4,0.8 l 1,0.3 c -0.3,0.8 -0.7,1.6 -1.1,2.4 h 12.1 v 1.6 h -13 c -0.6,1 -1.4,2 -2.2,3 h 4.6 v -2.4 h 1.7 v 2.4 h 7 v 6.1 c 0,0.9 -0.2,1.4 -0.9,1.7 -0.7,0.3 -1.8,0.3 -3.7,0.3 -0.1,-0.5 -0.3,-1.1 -0.6,-1.6 1.4,0 2.6,0 2.9,0 0.3,0 0.5,-0.1 0.5,-0.4 v -4.4 h -5.2 v 8 h -1.7 v -8 h -4.8 v 6.6 H 1007 V 589 c -1.1,1 -2.2,1.8 -3.4,2.5 -0.3,-0.4 -0.8,-1 -1.2,-1.4 2.7,-1.5 5,-3.7 6.6,-6.1 h -6.1 v -1.6 h 7.1 c 0.4,-0.8 0.8,-1.6 1.1,-2.4 -2,0.6 -4.1,1.1 -6,1.5 -0.3,-0.4 -0.8,-1.2 -1.2,-1.5 2.7,-0.5 5.6,-1.1 8.3,-2 -2.3,-0.8 -4.6,-1.5 -6.7,-2.1 z"
   id="path176" />
		<path
   d="m 1028.6,580.4 c 0.3,-0.1 0.6,-0.4 0.9,-1 0.3,-0.5 1.2,-2.4 1.6,-4.3 l 1.9,0.4 c -0.4,1.6 -1.1,3.2 -1.8,4.4 h 4.4 c 0.4,-1.8 0.8,-3.6 1,-5.6 l 2,0.3 c -0.3,1.8 -0.6,3.6 -1,5.2 h 10.4 v 1.7 h -10.9 c -0.2,0.9 -0.6,1.8 -0.9,2.6 h 8.1 l 0.3,-0.1 1.2,0.6 c -1,3.1 -2.6,5.5 -4.7,7.3 2.1,1.4 4.7,2.4 7.6,3 -0.4,0.4 -0.9,1.1 -1.1,1.6 -3.1,-0.7 -5.7,-1.8 -7.9,-3.5 -2.2,1.6 -4.7,2.7 -7.4,3.4 -0.2,-0.5 -0.6,-1.2 -1,-1.5 2.5,-0.6 4.9,-1.6 7,-3.1 -1.4,-1.3 -2.6,-2.9 -3.6,-4.7 -1.7,3 -4,5.4 -7.1,7.3 -0.2,-0.4 -0.9,-1.1 -1.3,-1.4 4.4,-2.7 7.1,-6.6 8.7,-11.6 h -3.4 c -1.5,0 -2.3,0.1 -2.6,0.4 0.1,-0.1 -0.1,-1 -0.4,-1.4 z m 15,5.6 h -7.6 c 0.9,1.9 2.2,3.6 3.9,5 1.5,-1.4 2.8,-3 3.7,-5 z m -0.3,-11.2 c 1,1.1 2.4,2.6 3.1,3.4 l -1.4,1 c -0.7,-0.9 -2,-2.4 -3.1,-3.6 z"
   id="path177" />
		<path
   d="m 1054.3,586.5 v 6.9 h 6.5 V 585 h -7.4 v -8.3 h 1.9 v 6.5 h 5.5 v -8.7 h 2 v 8.7 h 5.6 v -6.6 h 1.9 v 8.3 h -7.6 v 8.4 h 6.6 v -6.9 h 1.9 v 10.1 h -1.9 v -1.4 h -17 v -8.7 h 2 z"
   id="path178" />
		<path
   d="m 1084.8,591.5 v -1.8 h -9.9 v -1.4 h 9.9 v -1.7 h -7.6 v -1.3 h 7.6 v -1.7 h -6.9 v -4.2 h 6.9 V 578 h -9.4 v -1.5 h 9.4 v -1.9 h 1.8 v 1.9 h 9.6 v 1.5 h -9.6 v 1.4 h 7.2 v 4.2 h -7.2 v 1.7 h 7.6 v 3 h 2.5 v 1.4 h -2.5 v 4.3 h -1.8 v -1.1 h -5.8 v 1.6 c 0,1.1 -0.3,1.5 -1.1,1.8 -0.8,0.3 -2,0.3 -4,0.3 -0.1,-0.4 -0.4,-1.1 -0.6,-1.5 1.4,0 2.9,0 3.3,0 0.5,0 0.6,-0.1 0.6,-0.6 v -1.6 h -7.8 v -1.4 z m -5.2,-9.2 h 5.2 v -1.7 h -5.2 z m 7,0 h 5.4 v -1.7 h -5.4 z m 0,6 h 5.8 v -1.7 h -5.8 z m 0,3.2 h 5.8 v -1.8 h -5.8 z"
   id="path179" />
		<path
   d="m 1105.9,575.1 c -0.7,1.8 -1.5,3.6 -2.4,5.2 v 16.2 h -1.7 v -13.4 c -0.7,1 -1.4,2 -2.2,2.8 -0.2,-0.4 -0.7,-1.4 -1,-1.8 2.3,-2.4 4.4,-6 5.7,-9.6 z m 6.4,11.4 v -5.3 h -3.8 c -0.5,1.4 -1.1,2.7 -1.8,3.7 -0.3,-0.3 -1.1,-0.7 -1.5,-0.9 1.4,-2 2.4,-5.1 3,-8.2 l 1.7,0.4 c -0.2,1.1 -0.5,2.3 -0.8,3.4 h 3.2 V 575 h 1.8 v 4.6 h 5.5 v 1.8 h -5.5 v 5.3 h 6.6 v 1.8 h -6.6 v 8.4 h -1.8 v -8.4 h -6.9 v -1.8 h 6.9 z"
   id="path180" />
		<path
   d="m 1130.1,592.5 c 0,2 -1.6,3.7 -3.7,3.7 -2,0 -3.6,-1.6 -3.6,-3.7 0,-2 1.7,-3.6 3.6,-3.6 2.1,-0.1 3.7,1.5 3.7,3.6 z m -1.2,0 c 0,-1.3 -1.1,-2.4 -2.4,-2.4 -1.3,0 -2.4,1.1 -2.4,2.4 0,1.4 1.1,2.4 2.4,2.4 1.3,0 2.4,-1.1 2.4,-2.4 z"
   id="path181" />
		<path
   d="m 822.4,621.4 1.1,-1.4 c 1,1.1 2.4,2 4.3,2 2.1,0 3.6,-1.2 3.6,-3.1 0,-2 -1.4,-3.4 -5.5,-3.4 v -1.7 c 3.6,0 4.9,-1.4 4.9,-3.2 0,-1.7 -1.1,-2.7 -3,-2.7 -1.4,0 -2.6,0.7 -3.6,1.8 l -1.2,-1.4 c 1.3,-1.2 2.9,-2.1 4.9,-2.1 3,0 5.1,1.6 5.1,4.3 0,2.1 -1.3,3.4 -3.1,4.1 v 0.1 c 2.1,0.5 3.7,2 3.7,4.4 0,3 -2.5,4.9 -5.7,4.9 -2.7,-0.2 -4.4,-1.4 -5.5,-2.6 z"
   id="path182" />
		<path
   d="m 836.7,622.1 c 0,-1 0.7,-1.7 1.6,-1.7 0.9,0 1.6,0.7 1.6,1.7 0,1 -0.7,1.7 -1.6,1.7 -0.9,0 -1.6,-0.7 -1.6,-1.7 z"
   id="path183" />
		<path
   d="m 861.8,609.9 h -2.9 v -1.7 h 3.3 c 0.3,-1.7 0.6,-3.4 0.8,-4.9 l 1.8,0.1 c -0.2,1.5 -0.5,3.1 -0.8,4.8 h 3.9 0.3 l 1.1,0.2 c -0.4,4.7 -1.3,8.2 -2.7,10.9 1.1,0.9 2,1.8 2.7,2.6 l -1.2,1.5 c -0.6,-0.7 -1.4,-1.6 -2.4,-2.5 -1.5,2.1 -3.3,3.5 -5.6,4.5 -0.3,-0.4 -0.7,-1.1 -1.1,-1.5 2.2,-0.8 3.9,-2.2 5.3,-4.2 -1.4,-1.1 -2.8,-2.3 -4.2,-3.2 0.5,-1.8 1.2,-4.1 1.7,-6.6 z m 1.8,0 c -0.5,2.1 -1,4.2 -1.5,5.9 1,0.7 2.1,1.5 3.1,2.3 1.1,-2.1 1.8,-4.9 2.2,-8.2 z m 16.4,-4 v 18.5 h -1.8 V 623 h -5.9 v 1.8 h -1.7 v -18.9 z m -1.8,15.4 v -13.7 h -5.9 v 13.7 z"
   id="path184" />
		<path
   d="m 902.1,604.5 v 9.6 h -7.4 v 2 h 9.6 v 1.7 h -8.1 c 2.2,2.2 5.7,4.2 8.7,5.3 -0.4,0.4 -1,1.1 -1.2,1.5 -3.1,-1.2 -6.6,-3.6 -9,-6.1 v 7 h -1.9 v -6.9 c -2.3,2.6 -5.8,4.9 -9,6.1 -0.3,-0.5 -0.8,-1.1 -1.2,-1.5 3.1,-1 6.6,-3.1 8.7,-5.4 h -8.1 V 616 h 9.6 v -2 h -7.2 v -9.6 h 16.5 z m -14.6,4 h 5.4 V 606 h -5.4 z m 0,4 h 5.4 V 610 h -5.4 z m 7.2,-4 h 5.4 V 606 h -5.4 z m 0,4 h 5.4 V 610 h -5.4 z"
   id="path185" />
		<path
   d="m 912.5,610.8 v 10.7 l 2.3,-1.6 c 0.1,0.5 0.4,1.2 0.5,1.5 -3.8,2.7 -4.4,3.2 -4.7,3.7 -0.2,-0.4 -0.7,-1 -1,-1.3 0.4,-0.4 1.2,-1.2 1.2,-2.4 v -8.9 H 907 v -1.8 h 5.5 z m -2.6,-7.2 c 1.2,1.2 2.7,2.9 3.4,4 l -1.4,1.2 c -0.7,-1.1 -2.2,-2.8 -3.4,-4.1 z m 18.4,11.4 c -1.2,1.8 -2.7,3.5 -4.4,5 1.7,1.3 3.6,2.8 4.6,3.9 l -1.4,1.2 c -1,-1 -2.9,-2.6 -4.5,-4 -2.3,1.8 -5,3.3 -8,4.3 -0.2,-0.5 -0.7,-1.2 -1.1,-1.5 5.7,-1.9 10.6,-5.5 12.9,-9.6 z m -6.6,-11.8 c 0.6,1 1.2,2.4 1.4,3.3 h 5.3 v 1.7 h -6.7 c -0.9,1.3 -2.2,3.1 -3.2,4.4 l 4.6,-0.3 c 0.6,-0.7 1,-1.4 1.4,-2.2 l 1.8,0.6 c -2.2,3.9 -6.1,7.4 -10.7,9.5 -0.2,-0.4 -0.7,-1.1 -1,-1.4 2.7,-1.2 5.2,-2.9 7.2,-4.8 -4.9,0.3 -5.6,0.5 -6.1,0.6 -0.1,-0.5 -0.4,-1.3 -0.6,-1.8 0.5,-0.1 1.2,-0.3 1.7,-0.7 0.5,-0.5 2.1,-2.6 3,-3.9 h -5.2 v -1.7 h 6.7 c -0.3,-0.9 -0.7,-1.9 -1.2,-2.8 z"
   id="path186" />
		<path
   d="m 937.5,604.2 v 19.1 c 0,0.8 -0.1,1.3 -0.7,1.6 -0.5,0.3 -1.3,0.3 -2.6,0.3 0,-0.4 -0.2,-1.2 -0.5,-1.6 0.9,0 1.6,0 1.9,0 0.2,0 0.3,-0.1 0.3,-0.4 v -6 H 933 c -0.2,2.8 -0.6,5.8 -1.4,8.1 -0.3,-0.2 -1,-0.6 -1.3,-0.7 1.3,-3.4 1.4,-8.3 1.4,-11.8 v -8.7 h 5.8 z m -4.2,8.6 v 2.7 h 2.8 v -4.1 h -2.7 v 1.4 z m 0,-3 h 2.7 v -4 h -2.7 z m 5,11.5 c 0.3,-0.1 0.6,-0.6 0.9,-1.4 0.3,-0.7 1.1,-3 1.5,-5.4 h -2.5 v -1.7 h 3 V 609 h -2.5 v -1.7 h 2.5 v -3.9 h 1.5 v 3.9 h 2.5 v 1.7 h -2.5 v 3.7 h 2.9 v 1.7 h -3.3 c -0.5,2.2 -1.2,4.5 -2,6.3 l 3.5,-0.6 c -0.3,-1.2 -0.7,-2.5 -1.1,-3.6 l 1.2,-0.4 c 0.8,2 1.6,4.7 1.8,6.3 l -1.3,0.5 c 0,-0.4 -0.1,-0.9 -0.3,-1.5 -4.2,0.8 -4.9,1 -5.4,1.2 v 0 c 0,-0.1 -0.2,-0.9 -0.4,-1.3 z m 13.9,-16.6 v 14.7 c 0,0.8 -0.1,1.3 -0.7,1.6 -0.6,0.3 -1.3,0.3 -2.5,0.3 0,-0.5 -0.3,-1.2 -0.5,-1.7 0.9,0 1.6,0 1.8,0 0.2,0 0.3,-0.1 0.3,-0.3 V 606.4 H 948 v 19 h -1.6 v -20.7 z"
   id="path187" />
		<path
   d="m 966.7,603.3 v 5 h 9.6 v 1.8 h -7.4 c 1.7,4.1 4.8,7.8 8.1,9.8 -0.5,0.4 -1.1,1.1 -1.4,1.6 -3.6,-2.3 -6.6,-6.6 -8.5,-11.3 h -0.3 v 8.9 h 5.6 v 1.8 h -5.6 v 4.5 h -1.9 v -4.5 h -5.6 v -1.8 h 5.6 v -8.9 h -0.4 c -1.9,4.7 -5,9 -8.4,11.4 -0.3,-0.5 -0.9,-1.1 -1.3,-1.5 3.2,-1.9 6.2,-5.8 7.9,-9.9 h -7.2 v -1.8 h 9.5 v -5 h 1.7 z"
   id="path188" />
		<path
   d="m 985.1,616.5 c -0.2,0.8 -0.4,1.6 -0.6,2.4 0.9,2.2 2.5,3.3 4.6,3.9 v -7.3 h -9.9 v -1.6 h 21.2 v 1.6 h -9.5 v 2.7 h 8 v 1.6 h -8 v 3.3 c 0.9,0.1 1.8,0.1 2.8,0.1 0.9,0 5.9,0 7.2,0 -0.3,0.4 -0.6,1.2 -0.7,1.7 h -6.6 c -4.8,0 -7.9,-0.7 -9.9,-4.1 -0.9,1.9 -2.2,3.4 -3.7,4.6 -0.3,-0.3 -1,-1 -1.4,-1.2 2.5,-1.7 4.1,-4.4 4.7,-7.9 z m 12.7,-12.2 v 7.9 h -16.1 v -7.9 z m -14.3,3.3 H 996 v -1.9 h -12.5 z m 0,3.3 H 996 v -2 h -12.5 z"
   id="path189" />
		<path
   d="m 1007.4,603.3 v 4.8 h 2.7 v 1.7 h -2.7 v 4.8 l 2.4,-0.7 0.2,1.6 -2.7,0.9 v 6.8 c 0,1 -0.2,1.5 -0.8,1.8 -0.6,0.3 -1.5,0.4 -3,0.3 0,-0.4 -0.3,-1.2 -0.5,-1.7 1,0 2,0 2.3,0 0.3,0 0.4,-0.1 0.4,-0.4 V 617 l -2.8,0.9 -0.5,-1.8 c 0.9,-0.2 2,-0.6 3.2,-0.9 v -5.3 h -3 v -1.7 h 3 v -4.8 h 1.8 z m 6.3,13.2 c -0.1,0.9 -0.3,1.8 -0.5,2.6 0.7,2 1.8,3.1 3.1,3.7 v -7.6 h -5.9 v -1.5 h 13.8 v 1.5 h -6.2 v 2.8 h 5 v 1.5 h -5 v 3.8 c 0.7,0.1 1.5,0.1 2.3,0.1 0.6,0 3.8,0 4.7,0 -0.2,0.4 -0.5,1.2 -0.6,1.6 h -4.2 c -3.5,0 -6,-0.7 -7.6,-4.1 -0.7,1.8 -1.6,3.3 -2.9,4.4 -0.3,-0.3 -1,-0.8 -1.3,-1.1 2.1,-1.7 3.2,-4.4 3.6,-8 z m 9.3,-12.4 v 7.8 h -11.4 v -7.8 z m -9.7,3.3 h 8 v -1.9 h -8 z m 0,3.2 h 8 v -1.9 h -8 z"
   id="path190" />
		<path
   d="m 1036.8,617.9 v -2 h 1.8 v 2 h 9.9 v 1.5 h -8.4 c 2.2,1.8 5.7,3.4 9,4.1 -0.4,0.4 -0.9,1.1 -1.2,1.5 -3.4,-0.9 -7,-2.8 -9.3,-5.1 v 5.4 h -1.8 V 620 c -2.3,2.2 -5.8,4.1 -9.1,5 -0.2,-0.4 -0.8,-1.1 -1.1,-1.5 3.2,-0.7 6.7,-2.3 8.8,-4.1 h -8.4 v -1.5 z m -3.9,-7.3 h -5.6 v -1.5 h 6.9 c 0.6,-0.8 1.2,-1.5 1.7,-2.2 l 1.6,0.5 c -0.4,0.6 -0.8,1.1 -1.3,1.7 h 12.2 v 1.5 h -4.7 c -0.7,1.2 -1.8,2.3 -3,3.1 2.8,0.6 5.3,1.3 7.2,1.9 l -1.5,1.3 c -1.9,-0.7 -4.6,-1.5 -7.6,-2.1 -2.7,1.1 -6.3,1.7 -10.7,2 -0.1,-0.5 -0.4,-1.1 -0.7,-1.5 3.4,-0.2 6.3,-0.5 8.6,-1.2 -1.8,-0.3 -3.6,-0.6 -5.5,-0.9 0.7,-0.7 1.6,-1.6 2.4,-2.6 z m 4.7,-7.4 c 0.4,0.6 0.9,1.3 1.2,1.9 h 9.1 v 3.5 h -1.8 v -1.9 h -16.8 v 1.9 h -1.7 v -3.5 h 9.3 l -0.8,-1.4 z m -2.8,7.4 c -0.6,0.6 -1.2,1.2 -1.7,1.7 1.8,0.3 3.5,0.6 5.2,0.9 1.4,-0.7 2.5,-1.5 3.3,-2.6 z"
   id="path191" />
		<path
   d="m 1062.7,603.3 v 4.3 h 8.8 v 11.3 h -1.8 v -1.4 h -6.9 v 7.8 h -1.9 v -7.8 h -6.9 v 1.5 h -1.8 v -11.4 h 8.7 v -4.3 z m -1.9,12.4 v -6.4 h -6.9 v 6.4 z m 8.8,-6.3 h -6.9 v 6.4 h 6.9 z"
   id="path192" />
		<path
   d="m 1081.5,603.6 c -0.4,1.2 -0.9,2.5 -1.3,3.6 h 4 v 15.7 h -6.7 v 1.9 h -1.7 v -17.6 h 2.7 c 0.4,-1.2 0.8,-2.8 1,-3.9 z m -4,10.2 h 5 v -5.1 h -5 z m 5.1,7.4 v -5.8 h -5 v 5.8 z m 7.3,-17.6 c -0.3,1.2 -0.6,2.4 -1,3.5 h 7.2 c 0,0 0,0.7 0,0.9 -0.4,11 -0.7,14.7 -1.7,15.9 -0.6,0.7 -1.1,0.9 -1.9,1 -0.8,0.1 -2.2,0 -3.6,0 0,-0.5 -0.3,-1.3 -0.6,-1.7 1.6,0.1 3,0.1 3.6,0.1 0.5,0 0.7,-0.1 1,-0.4 0.8,-0.8 1.2,-4.5 1.4,-14.1 h -6.1 c -0.7,1.6 -1.4,3.1 -2.3,4.2 -0.3,-0.3 -1.1,-0.8 -1.5,-1 1.7,-2.1 3,-5.4 3.7,-8.8 z m -1.5,8.9 c 1.4,1.7 3,4 3.8,5.4 l -1.5,1 c -0.7,-1.5 -2.4,-3.9 -3.7,-5.6 z"
   id="path193" />
		<path
   d="M 1101.3,622.2 V 614 h -2.3 v -1.5 h 21.6 V 614 H 1109 v 7.3 l 1.3,-0.1 v 1.5 l -1.3,0.2 v 2.5 h -1.7 v -2.3 l -8.2,1 -0.2,-1.6 z m 16.4,-18.1 v 7.1 H 1102 v -7.1 z m -14.8,10 v 1.6 h 4.4 v -1.6 z m 0,2.9 v 1.7 h 4.4 V 617 Z m 0,3.1 v 2 l 4.4,-0.5 v -1.5 z m 0.8,-13.1 h 12.1 v -1.7 h -12.1 z m 0,2.9 h 12.1 v -1.7 h -12.1 z m 14.8,5.6 0.3,-0.1 1,0.5 c -0.7,2.4 -2,4.3 -3.6,5.8 1.3,1 2.9,1.7 4.6,2.1 -0.4,0.3 -0.8,1 -1.1,1.4 -1.8,-0.5 -3.4,-1.4 -4.8,-2.5 -1.4,1.1 -3,1.9 -4.6,2.5 -0.2,-0.4 -0.6,-1 -0.9,-1.3 1.5,-0.5 3,-1.2 4.3,-2.2 -1.3,-1.3 -2.3,-2.9 -3,-4.6 l 0.5,-0.1 h -1.4 v -1.5 z m -3.4,5.3 c 1.1,-1.1 2,-2.3 2.7,-3.7 h -5.3 c 0.6,1.4 1.5,2.6 2.6,3.7 z"
   id="path194" />
		<path
   d="m 1141.5,603.5 1.5,1.5 c -4.2,1 -10.3,1.7 -15.8,2 v 3 h 17.5 v 1.7 h -17.5 c 0,4 -0.4,9.8 -3.2,13.8 -0.3,-0.4 -1.1,-1 -1.5,-1.2 2.6,-3.6 2.9,-8.8 2.9,-12.5 v -6.2 c 5.7,-0.5 12.4,-1.2 16.1,-2.1 z m 1.4,11.6 v 10.2 h -1.9 v -1.2 h -10 v 1.2 h -1.8 V 615 h 13.7 z m -1.9,7.4 v -5.7 h -10 v 5.7 z"
   id="path195" />
		<path
   d="m 1168.8,613.1 v 2 h -22 v -2 z"
   id="path196" />
		<path
   d="m 1176.7,605.2 v 5.4 h 4.5 v -7.3 h 1.9 v 2.6 h 7.1 v 1.7 h -7.1 v 3.1 h 9.3 v 1.7 h -9.4 v 7.5 c 2.6,-1.6 4.5,-3.6 5.9,-6.3 l 1.7,0.8 c -3.1,6.2 -9.3,9.5 -18.5,10.9 -0.2,-0.5 -0.6,-1.2 -0.9,-1.7 4.8,-0.6 8.6,-1.8 11.7,-3.6 h -1.7 v -7.6 h -9.7 v -1.7 h 3.6 v -5.4 h 1.6 z m 1.8,8.8 c -1.3,2.2 -3.4,4.5 -5.2,6 -0.3,-0.4 -0.9,-1.1 -1.3,-1.4 1.8,-1.3 3.7,-3.2 4.8,-5.2 z"
   id="path197" />
		<path
   d="m 1215.2,602.9 1.4,0.7 c -2.8,2.9 -4.5,6.4 -4.5,10.7 0,4.3 1.7,7.8 4.5,10.7 l -1.4,0.7 c -2.9,-2.9 -4.8,-6.7 -4.8,-11.4 0.1,-4.6 2,-8.5 4.8,-11.4 z"
   id="path198" />
		<path
   d="m 1226.9,617.1 c 1.2,2 2.7,4.6 3.4,6.2 l -1.6,0.9 c -0.3,-0.6 -0.6,-1.5 -1.1,-2.4 -6.1,2.2 -6.9,2.5 -7.4,2.9 -0.1,-0.5 -0.5,-1.4 -0.8,-1.8 0.4,-0.2 1,-0.6 1,-1.6 v -16.7 h 9.2 v 11.3 h -7.4 v 5.9 l 4.6,-1.5 c -0.5,-0.9 -1,-1.7 -1.4,-2.5 z m 0.9,-10.9 h -5.6 v 3.1 h 5.6 z m -5.6,4.8 v 3.3 h 5.6 V 611 Z m 17.5,-6.3 v 13.8 c 0,1 -0.2,1.5 -0.9,1.8 -0.7,0.3 -1.8,0.3 -3.5,0.3 0,-0.5 -0.3,-1.2 -0.5,-1.7 1.2,0 2.4,0 2.7,0 0.4,0 0.5,-0.1 0.5,-0.4 v -12.1 h -4.4 v 19 h -1.8 v -20.7 z"
   id="path199" />
		<path
   d="m 1245.8,609.9 h -2.9 v -1.7 h 3.3 c 0.3,-1.7 0.6,-3.4 0.8,-4.9 l 1.8,0.1 c -0.2,1.5 -0.5,3.1 -0.8,4.8 h 3.9 0.3 l 1.1,0.2 c -0.4,4.7 -1.3,8.2 -2.7,10.9 1.1,0.9 2,1.8 2.7,2.6 l -1.2,1.5 c -0.6,-0.7 -1.4,-1.6 -2.4,-2.5 -1.5,2.1 -3.3,3.5 -5.6,4.5 -0.3,-0.4 -0.7,-1.1 -1.1,-1.5 2.2,-0.8 3.9,-2.2 5.3,-4.2 -1.4,-1.1 -2.8,-2.3 -4.2,-3.2 0.5,-1.8 1.2,-4.1 1.7,-6.6 z m 1.8,0 c -0.5,2.1 -1,4.2 -1.5,5.9 1,0.7 2.1,1.5 3.1,2.3 1.1,-2.1 1.8,-4.9 2.2,-8.2 z m 16.4,-4 v 18.5 h -1.8 V 623 h -5.9 v 1.8 h -1.7 v -18.9 z m -1.8,15.4 v -13.7 h -5.9 v 13.7 z"
   id="path200" />
		<path
   d="m 1286.1,604.5 v 9.6 h -7.4 v 2 h 9.6 v 1.7 h -8.1 c 2.2,2.2 5.7,4.2 8.7,5.3 -0.4,0.4 -1,1.1 -1.2,1.5 -3.1,-1.2 -6.6,-3.6 -9,-6.1 v 7 h -1.9 v -6.9 c -2.3,2.6 -5.8,4.9 -9,6.1 -0.3,-0.5 -0.8,-1.1 -1.2,-1.5 3.1,-1 6.6,-3.1 8.7,-5.4 h -8.1 V 616 h 9.6 v -2 h -7.2 v -9.6 h 16.5 z m -14.6,4 h 5.4 V 606 h -5.4 z m 0,4 h 5.4 V 610 h -5.4 z m 7.2,-4 h 5.4 V 606 h -5.4 z m 0,4 h 5.4 V 610 h -5.4 z"
   id="path201" />
		<path
   class="st3"
   d="m 1297.4,610.4 h 1.8 l 0.2,1.9 v 0 c 1.2,-1.2 2.6,-2.2 4.4,-2.2 2.7,0 4,1.8 4,5.1 v 8.3 h -2.2 v -8 c 0,-2.4 -0.7,-3.5 -2.5,-3.5 -1.3,0 -2.3,0.7 -3.6,2 v 9.5 h -2.2 v -13.1 z"
   id="path202" />
		<path
   class="st3"
   d="m 1311.1,617 c 0,-4.2 2.9,-6.9 5.8,-6.9 3.3,0 5.2,2.4 5.2,6.1 0,0.5 0,0.9 -0.1,1.2 h -8.8 c 0.1,2.8 1.8,4.6 4.3,4.6 1.3,0 2.3,-0.4 3.3,-1 l 0.8,1.5 c -1.1,0.7 -2.5,1.3 -4.3,1.3 -3.5,0 -6.2,-2.5 -6.2,-6.8 z m 9.1,-1.1 c 0,-2.6 -1.2,-4.1 -3.2,-4.1 -1.8,0 -3.5,1.5 -3.7,4.1 z"
   id="path203" />
		<path
   class="st3"
   d="m 1327.8,616.7 -4,-6.2 h 2.4 l 1.8,2.9 c 0.4,0.7 0.8,1.4 1.3,2.2 h 0.1 c 0.4,-0.7 0.7,-1.4 1.2,-2.2 l 1.6,-2.9 h 2.3 l -4,6.5 4.3,6.6 h -2.4 l -1.9,-3 c -0.4,-0.8 -0.9,-1.6 -1.4,-2.3 h -0.1 c -0.5,0.7 -0.9,1.5 -1.3,2.3 l -1.8,3 h -2.3 z"
   id="path204" />
		<path
   class="st3"
   d="m 1337.6,619.4 v -7.2 h -1.9 v -1.7 l 2.1,-0.1 0.2,-3.7 h 1.8 v 3.7 h 3.6 v 1.8 h -3.6 v 7.3 c 0,1.6 0.5,2.5 2,2.5 0.5,0 1.1,-0.2 1.5,-0.4 l 0.4,1.7 c -0.7,0.2 -1.6,0.5 -2.4,0.5 -2.7,0 -3.7,-1.7 -3.7,-4.4 z"
   id="path205" />
		<path
   class="st3"
   d="m 1344.4,625.4 h 12.8 v 1.4 h -12.8 z"
   id="path206" />
		<path
   class="st3"
   d="m 1358.8,617 c 0,-4.2 2.9,-6.9 5.8,-6.9 3.3,0 5.2,2.4 5.2,6.1 0,0.5 0,0.9 -0.1,1.2 h -8.8 c 0.1,2.8 1.8,4.6 4.3,4.6 1.3,0 2.3,-0.4 3.3,-1 l 0.8,1.5 c -1.1,0.7 -2.5,1.3 -4.3,1.3 -3.5,0 -6.2,-2.5 -6.2,-6.8 z m 9.1,-1.1 c 0,-2.6 -1.2,-4.1 -3.2,-4.1 -1.8,0 -3.5,1.5 -3.7,4.1 z"
   id="path207" />
		<path
   class="st3"
   d="m 1375.5,616.7 -4,-6.2 h 2.4 l 1.8,2.9 c 0.4,0.7 0.8,1.4 1.3,2.2 h 0.1 c 0.4,-0.7 0.7,-1.4 1.2,-2.2 l 1.6,-2.9 h 2.3 l -4,6.5 4.3,6.6 h -2.4 l -1.9,-3 c -0.4,-0.8 -0.9,-1.6 -1.4,-2.3 h -0.1 c -0.5,0.7 -0.9,1.5 -1.3,2.3 l -1.8,3 h -2.3 z"
   id="path208" />
		<path
   class="st3"
   d="m 1384,617 c 0,-4.2 2.9,-6.9 5.8,-6.9 3.3,0 5.2,2.4 5.2,6.1 0,0.5 0,0.9 -0.1,1.2 h -8.8 c 0.1,2.8 1.8,4.6 4.3,4.6 1.3,0 2.3,-0.4 3.3,-1 l 0.8,1.5 c -1.1,0.7 -2.5,1.3 -4.3,1.3 -3.4,0 -6.2,-2.5 -6.2,-6.8 z m 9.1,-1.1 c 0,-2.6 -1.2,-4.1 -3.2,-4.1 -1.8,0 -3.5,1.5 -3.7,4.1 z"
   id="path209" />
		<path
   class="st3"
   d="m 1397.3,617 c 0,-4.3 2.9,-6.9 6.3,-6.9 1.7,0 2.9,0.7 3.8,1.5 l -1.1,1.4 c -0.7,-0.7 -1.6,-1.1 -2.6,-1.1 -2.4,0 -4.1,2 -4.1,5 0,3 1.6,5 4,5 1.2,0 2.3,-0.6 3.1,-1.3 l 1,1.5 c -1.2,1 -2.7,1.6 -4.2,1.6 -3.6,0.1 -6.2,-2.4 -6.2,-6.7 z"
   id="path210" />
		<path
   class="st3"
   d="m 1410.3,618.7 v -8.3 h 2.2 v 8 c 0,2.4 0.7,3.5 2.4,3.5 1.3,0 2.3,-0.7 3.5,-2.2 v -9.2 h 2.2 v 13 h -1.8 l -0.2,-2 h -0.1 c -1.2,1.4 -2.5,2.4 -4.3,2.4 -2.6,-0.1 -3.9,-1.9 -3.9,-5.2 z"
   id="path211" />
		<path
   class="st3"
   d="m 1425.5,619.4 v -7.2 h -1.9 v -1.7 l 2.1,-0.1 0.2,-3.7 h 1.8 v 3.7 h 3.6 v 1.8 h -3.6 v 7.3 c 0,1.6 0.5,2.5 2,2.5 0.5,0 1.1,-0.2 1.5,-0.4 l 0.4,1.7 c -0.7,0.2 -1.6,0.5 -2.4,0.5 -2.8,0 -3.7,-1.7 -3.7,-4.4 z"
   id="path212" />
		<path
   class="st3"
   d="m 1433.8,606.3 c 0,-0.8 0.6,-1.4 1.4,-1.4 0.8,0 1.5,0.6 1.5,1.4 0,0.9 -0.6,1.5 -1.5,1.5 -0.9,0 -1.4,-0.6 -1.4,-1.5 z m 0.3,4.1 h 2.2 v 13 h -2.2 z"
   id="path213" />
		<path
   class="st3"
   d="m 1439.8,617 c 0,-4.3 2.8,-6.9 6,-6.9 3.2,0 6,2.5 6,6.9 0,4.3 -2.8,6.8 -6,6.8 -3.2,0 -6,-2.5 -6,-6.8 z m 9.8,0 c 0,-3 -1.5,-5 -3.8,-5 -2.3,0 -3.8,2 -3.8,5 0,3 1.5,5 3.8,5 2.2,0 3.8,-2 3.8,-5 z"
   id="path214" />
		<path
   class="st3"
   d="m 1455.3,610.4 h 1.8 l 0.2,1.9 v 0 c 1.2,-1.2 2.6,-2.2 4.4,-2.2 2.7,0 4,1.8 4,5.1 v 8.3 h -2.2 v -8 c 0,-2.4 -0.7,-3.5 -2.5,-3.5 -1.3,0 -2.3,0.7 -3.6,2 v 9.5 h -2.2 v -13.1 z"
   id="path215" />
		<path
   class="st3"
   d="m 1468,625.4 h 12.8 v 1.4 H 1468 Z"
   id="path216" />
		<path
   class="st3"
   d="m 1483.3,604.4 h 2.2 v 5.2 l -0.1,2.7 c 1.2,-1.2 2.5,-2.2 4.3,-2.2 2.7,0 4,1.8 4,5.1 v 8.3 h -2.2 v -8 c 0,-2.4 -0.7,-3.5 -2.5,-3.5 -1.3,0 -2.3,0.7 -3.6,2 v 9.5 h -2.2 v -19.1 z"
   id="path217" />
		<path
   class="st3"
   d="m 1497.1,620.1 c 0,-2.8 2.4,-4.2 8,-4.9 0,-1.7 -0.6,-3.3 -2.7,-3.3 -1.5,0 -2.9,0.7 -3.9,1.4 l -0.8,-1.5 c 1.2,-0.8 3,-1.7 5.1,-1.7 3.2,0 4.5,2.1 4.5,5.4 v 8 h -1.8 l -0.2,-1.6 h -0.1 c -1.2,1 -2.7,1.9 -4.3,1.9 -2.2,0 -3.8,-1.4 -3.8,-3.7 z m 8,0.2 v -3.6 c -4.4,0.5 -5.9,1.6 -5.9,3.3 0,1.5 1,2.1 2.3,2.1 1.3,-0.1 2.3,-0.7 3.6,-1.8 z"
   id="path218" />
		<path
   class="st3"
   d="m 1510,622 1.1,-1.5 c 1.2,0.9 2.3,1.6 3.9,1.6 1.7,0 2.6,-0.9 2.6,-2 0,-1.3 -1.5,-1.9 -3,-2.5 -1.8,-0.7 -3.8,-1.5 -3.8,-3.8 0,-2.1 1.6,-3.7 4.5,-3.7 1.6,0 3,0.7 4,1.5 l -1.1,1.4 c -0.9,-0.6 -1.8,-1.2 -3,-1.2 -1.7,0 -2.4,0.9 -2.4,1.9 0,1.2 1.3,1.7 2.8,2.3 1.9,0.7 4,1.5 4,4 0,2.1 -1.7,3.9 -4.7,3.9 -1.9,-0.1 -3.7,-0.9 -4.9,-1.9 z"
   id="path219" />
		<path
   class="st3"
   d="m 1522.6,604.4 h 2.2 v 5.2 l -0.1,2.7 c 1.2,-1.2 2.5,-2.2 4.3,-2.2 2.7,0 4,1.8 4,5.1 v 8.3 h -2.2 v -8 c 0,-2.4 -0.7,-3.5 -2.5,-3.5 -1.3,0 -2.3,0.7 -3.6,2 v 9.5 h -2.2 v -19.1 z"
   id="path220" />
		<path
   d="m 1552.1,603.4 v 2.9 c 0,0.9 0,1.9 -0.1,2.9 h 10 c 0,0 0,0.6 0,0.9 -0.4,9.6 -0.7,13 -1.7,14.1 -0.6,0.7 -1.1,0.9 -2,1 -0.8,0.1 -2.4,0 -3.8,0 0,-0.6 -0.3,-1.3 -0.6,-1.9 1.6,0.1 3.1,0.1 3.7,0.1 0.5,0 0.8,0 1.1,-0.3 0.7,-0.7 1.1,-4 1.4,-12.1 h -8.3 c -0.6,4.7 -2.5,10.1 -8.7,14.2 -0.3,-0.4 -1,-1 -1.4,-1.3 5.8,-3.7 7.7,-8.6 8.3,-12.8 h -7.6 v -1.8 h 7.8 c 0.1,-1 0.1,-2 0.1,-2.9 v -2.8 h 1.8 z m -6.3,0.6 c 1,1.1 2.1,2.5 2.6,3.5 l -1.6,0.8 c -0.5,-1 -1.6,-2.5 -2.5,-3.6 z m 8,9.8 c 1.2,1.4 2.7,3.4 3.4,4.6 l -1.6,0.9 c -0.6,-1.3 -2,-3.3 -3.3,-4.8 z"
   id="path221" />
		<path
   d="m 1576.4,603.2 c 0.5,0.9 1.2,2.2 1.5,3.1 h 8.7 v 4.8 h -1.8 v -3.2 H 1568 v 3.8 h -1.8 v -5.4 h 9.5 c -0.3,-0.8 -0.8,-1.8 -1.2,-2.5 z m -1,19.7 v -6.1 h -6.6 v -1.6 h 15.4 v 1.6 h -6.9 v 6.1 h 9.3 v 1.6 h -20.4 v -1.6 z m -0.6,-12.5 c -1.9,1.7 -4.6,3.5 -7.4,4.7 l -1.1,-1.6 c 2.8,-1 5.3,-2.6 7.2,-4.2 z m 4.2,-1 c 2.4,1.2 5.7,3 7.4,4.1 l -1.2,1.4 c -1.6,-1.2 -4.9,-3 -7.3,-4.3 z"
   id="path222" />
		<path
   d="m 1590.9,625.8 -1.4,-0.7 c 2.8,-2.9 4.5,-6.4 4.5,-10.7 0,-4.3 -1.7,-7.8 -4.5,-10.7 l 1.4,-0.7 c 2.9,2.9 4.8,6.7 4.8,11.4 0,4.6 -1.9,8.4 -4.8,11.4 z"
   id="path223" />
		<path
   d="m 1615.6,624.8 c 1.8,-0.8 2.9,-1.9 3,-3.6 h -0.4 c -1,0 -1.8,-0.6 -1.8,-1.7 0,-1.1 0.8,-1.7 1.8,-1.7 1.3,0 2,1.1 2,2.8 0,2.6 -1.6,4.6 -4.2,5.4 z"
   id="path224" />
		<path
   d="m 1643,603.3 v 5.1 h 3.1 v 1.7 h -3.1 v 0.6 c 0.7,0.8 2.8,3.4 3.2,4.1 l -1.1,1.4 c -0.4,-0.8 -1.4,-2.3 -2.2,-3.4 v 12.6 h -1.8 v -12 c -0.9,2.6 -2.1,5.1 -3.3,6.6 -0.2,-0.5 -0.7,-1.2 -1,-1.7 1.5,-1.8 3.1,-5.3 3.9,-8.2 h -3.3 v -1.7 h 3.7 v -5.1 z m 6.8,12.3 c -0.7,2.8 -1.9,5.6 -3.2,7.4 -0.3,-0.2 -1.1,-0.7 -1.5,-0.9 1.3,-1.7 2.4,-4.3 3,-6.8 z m 9.5,-4.7 v 1.7 h -5.9 v 10.5 c 0,1 -0.2,1.6 -0.9,1.9 -0.7,0.3 -1.8,0.3 -3.5,0.3 -0.1,-0.5 -0.3,-1.3 -0.6,-1.8 1.2,0 2.4,0 2.7,0 0.4,0 0.5,-0.1 0.5,-0.4 v -10.5 h -5.1 v -1.7 z m -1.3,-5.8 v 1.7 h -10.5 v -1.7 z m -1.4,10.1 c 1.2,2.4 2.3,5.4 2.7,7.3 l -1.7,0.6 c -0.4,-1.9 -1.5,-5 -2.6,-7.4 z"
   id="path225" />
		<path
   d="m 1664.1,623.6 c 0.4,-0.3 1.2,-1.2 1.2,-2.3 v -8.6 h -3.8 v -1.8 h 5.6 v 10.4 l 2.5,-1.7 c 0.1,0.5 0.4,1.2 0.6,1.6 -4,2.8 -4.7,3.3 -5,3.8 v 0 c -0.2,-0.5 -0.7,-1.1 -1.1,-1.4 z m 0.5,-19.7 c 1.3,1.1 3,2.7 3.8,3.7 l -1.3,1.3 c -0.7,-1.1 -2.4,-2.7 -3.7,-3.9 z m 17.2,1.1 v 10.8 h -1.8 v -1.2 h -7.2 v 7.5 c 0,1 0.3,1.2 1.8,1.2 0.7,0 4.4,0 5.3,0 1.5,0 1.7,-0.6 1.8,-4 0.5,0.3 1.2,0.6 1.8,0.8 -0.3,3.9 -0.9,5 -3.5,5 -0.6,0 -4.9,0 -5.5,0 -2.7,0 -3.6,-0.6 -3.6,-2.9 V 613 h 9.1 v -6.1 h -9.5 V 605 Z"
   id="path226" />
		<path
   d="m 1690,603.3 v 4.8 h 2.7 v 1.7 h -2.7 v 4.8 l 2.4,-0.7 0.2,1.6 -2.7,0.9 v 6.8 c 0,1 -0.2,1.5 -0.8,1.8 -0.6,0.3 -1.5,0.4 -3,0.3 0,-0.4 -0.3,-1.2 -0.5,-1.7 1,0 2,0 2.3,0 0.3,0 0.4,-0.1 0.4,-0.4 V 617 l -2.8,0.9 -0.5,-1.8 c 0.9,-0.2 2,-0.6 3.2,-0.9 v -5.3 h -3 v -1.7 h 3 v -4.8 h 1.8 z m 6.3,13.2 c -0.1,0.9 -0.3,1.8 -0.5,2.6 0.7,2 1.8,3.1 3.1,3.7 v -7.6 h -5.9 v -1.5 h 13.8 v 1.5 h -6.2 v 2.8 h 5 v 1.5 h -5 v 3.8 c 0.7,0.1 1.5,0.1 2.3,0.1 0.6,0 3.8,0 4.7,0 -0.2,0.4 -0.5,1.2 -0.6,1.6 h -4.2 c -3.5,0 -6,-0.7 -7.6,-4.1 -0.7,1.8 -1.6,3.3 -2.9,4.4 -0.3,-0.3 -1,-0.8 -1.3,-1.1 2.1,-1.7 3.2,-4.4 3.6,-8 z m 9.3,-12.4 v 7.8 h -11.4 v -7.8 z m -9.8,3.3 h 8 v -1.9 h -8 z m 0,3.2 h 8 v -1.9 h -8 z"
   id="path227" />
		<path
   d="m 1719.4,617.9 v -2 h 1.8 v 2 h 9.9 v 1.5 h -8.4 c 2.2,1.8 5.7,3.4 9,4.1 -0.4,0.4 -0.9,1.1 -1.2,1.5 -3.4,-0.9 -7,-2.8 -9.3,-5.1 v 5.4 h -1.8 V 620 c -2.3,2.2 -5.8,4.1 -9.1,5 -0.2,-0.4 -0.8,-1.1 -1.1,-1.5 3.2,-0.7 6.7,-2.3 8.8,-4.1 h -8.4 v -1.5 z m -3.9,-7.3 h -5.6 v -1.5 h 6.9 c 0.6,-0.8 1.2,-1.5 1.7,-2.2 l 1.6,0.5 c -0.4,0.6 -0.8,1.1 -1.3,1.7 h 12.2 v 1.5 h -4.7 c -0.7,1.2 -1.8,2.3 -3,3.1 2.8,0.6 5.3,1.3 7.2,1.9 l -1.5,1.3 c -1.9,-0.7 -4.6,-1.5 -7.6,-2.1 -2.7,1.1 -6.3,1.7 -10.7,2 -0.1,-0.5 -0.4,-1.1 -0.7,-1.5 3.4,-0.2 6.3,-0.5 8.6,-1.2 -1.8,-0.3 -3.6,-0.6 -5.5,-0.9 0.6,-0.7 1.6,-1.6 2.4,-2.6 z m 4.7,-7.4 c 0.4,0.6 0.9,1.3 1.2,1.9 h 9.1 v 3.5 h -1.8 v -1.9 H 1712 v 1.9 h -1.7 v -3.5 h 9.3 l -0.8,-1.4 z m -2.8,7.4 c -0.6,0.6 -1.2,1.2 -1.7,1.7 1.8,0.3 3.5,0.6 5.2,0.9 1.4,-0.7 2.5,-1.5 3.3,-2.6 z"
   id="path228" />
		<path
   d="m 1744.1,603.4 v 2.9 c 0,0.9 0,1.9 -0.1,2.9 h 10 c 0,0 0,0.6 0,0.9 -0.4,9.6 -0.7,13 -1.7,14.1 -0.6,0.7 -1.1,0.9 -2,1 -0.8,0.1 -2.4,0 -3.8,0 0,-0.6 -0.3,-1.3 -0.6,-1.9 1.6,0.1 3.1,0.1 3.7,0.1 0.5,0 0.8,0 1.1,-0.3 0.7,-0.7 1.1,-4 1.4,-12.1 h -8.3 c -0.6,4.7 -2.5,10.1 -8.7,14.2 -0.3,-0.4 -1,-1 -1.4,-1.3 5.8,-3.7 7.7,-8.6 8.3,-12.8 h -7.6 v -1.8 h 7.8 c 0.1,-1 0.1,-2 0.1,-2.9 v -2.8 h 1.8 z m -6.3,0.6 c 1,1.1 2.1,2.5 2.6,3.5 l -1.6,0.8 c -0.5,-1 -1.6,-2.5 -2.5,-3.6 z m 8,9.8 c 1.2,1.4 2.7,3.4 3.4,4.6 l -1.6,0.9 c -0.6,-1.3 -2,-3.3 -3.3,-4.8 z"
   id="path229" />
		<path
   d="m 1776.2,604.8 v 11.1 h -1.9 v -1.2 h -12.6 v 6.4 c 0,1.5 0.6,1.9 3.2,1.9 1.3,0 7.5,0 9.1,0 2.6,0 3,-0.8 3.4,-4.7 0.5,0.3 1.3,0.6 1.8,0.7 -0.5,4.4 -1.2,5.7 -5.2,5.7 -1,0 -8.1,0 -9,0 -3.9,0 -5.1,-0.7 -5.1,-3.7 v -12.1 h 1.8 v 4 h 12.6 v -6.3 h -15.7 v -1.8 z"
   id="path230" />
		<path
   d="m 1786.5,603.6 c -0.2,0.6 -0.4,1.2 -0.6,1.8 h 3.3 l 0.3,-0.1 1.1,0.7 c -0.4,1.1 -1,2.3 -1.5,3.3 h 2.5 v 13.9 c 0,0.8 -0.1,1.2 -0.6,1.5 -0.5,0.3 -1.2,0.3 -2.4,0.3 0,-0.4 -0.3,-1.1 -0.5,-1.5 0.8,0 1.5,0 1.7,0 0.3,0 0.3,-0.1 0.3,-0.3 v -3.6 h -2.2 v 4.4 h -1.3 v -4.4 h -2.4 c -0.2,2.1 -0.7,4.2 -1.8,5.8 -0.3,-0.3 -1,-0.7 -1.3,-0.8 1.6,-2.5 1.8,-6.1 1.8,-8.8 v -4.4 l -0.5,0.6 c -0.3,-0.3 -1,-0.8 -1.3,-1.1 1.7,-1.8 3,-4.7 3.8,-7.7 z m 1,5.8 c 0.4,-0.7 0.8,-1.7 1.1,-2.5 h -3.1 c -0.4,0.9 -0.8,1.7 -1.2,2.5 z m -3,5.7 v 0.7 c 0,0.8 0,1.6 -0.1,2.5 h 2.2 v -3.2 z m 0,-4.3 v 2.9 h 2.1 v -2.9 z m 3.5,2.9 h 2.2 v -2.9 h -2.2 z m 0,4.6 h 2.2 v -3.2 h -2.2 z m 14.7,-13.8 c 0,0 0,0.4 0,0.7 -0.2,4 -0.4,5.5 -0.9,6.1 -0.3,0.4 -0.7,0.6 -1.3,0.6 -0.5,0 -1.5,0 -2.5,0 0,-0.5 -0.2,-1.1 -0.4,-1.5 1,0.1 1.8,0.1 2.2,0.1 0.4,0 0.6,0 0.7,-0.2 0.3,-0.3 0.5,-1.4 0.6,-4.2 h -3.5 c -0.5,2.8 -1.6,5.2 -4.5,6.5 -0.2,-0.4 -0.6,-0.9 -1,-1.2 2.5,-1.1 3.4,-3 3.8,-5.3 h -3.3 v -1.5 h 10.1 z m -6.8,8.2 c -0.1,0.6 -0.3,1.3 -0.5,1.9 h 2.1 v -2.3 h 1.7 v 2.3 h 3.6 v 1.6 h -3.6 v 2.9 h 4.2 v 1.6 h -4.2 v 4.6 h -1.7 v -4.6 h -4.9 v -1.6 h 4.9 v -2.9 h -2.7 c -0.4,0.9 -0.8,1.7 -1.2,2.3 -0.3,-0.2 -1,-0.6 -1.4,-0.7 1,-1.4 1.8,-3.4 2.2,-5.4 z"
   id="path231" />
		<path
   d="m 1809.5,615.2 1.3,1.1 c -1.2,2.6 -2.7,5.7 -4,7.9 l -1.6,-1.1 c 1.3,-1.8 3,-5.1 4.3,-7.9 z m -2.5,-10.9 c 1.4,1.4 3.1,3.4 3.8,4.8 l -1.5,1 c -0.7,-1.3 -2.3,-3.4 -3.7,-4.9 z m 12.7,-0.9 v 3.7 h 5.4 v 7.3 h 2.4 v 1.7 h -6.8 c 1.2,3.7 3.4,6.5 7,7.7 -0.4,0.4 -0.9,1.1 -1.2,1.6 -3.7,-1.5 -6,-4.5 -7.3,-8.6 -0.8,3.2 -2.8,6.4 -7.4,8.7 -0.3,-0.4 -0.9,-1.1 -1.3,-1.4 4.6,-2.1 6.4,-5 7,-7.9 h -5.6 v -1.7 h 5.9 c 0.1,-1.1 0.1,-2.1 0.1,-3 V 609 h -4.8 v -1.7 h 4.8 v -3.7 h 1.8 z m 3.6,5.4 h -3.6 v 2.5 c 0,1 0,2 -0.1,3 h 3.8 v -5.5 z"
   id="path232" />
		<path
   d="m 1836.7,621.3 c 0,2 -1.6,3.7 -3.7,3.7 -2,0 -3.6,-1.6 -3.6,-3.7 0,-2 1.7,-3.6 3.6,-3.6 2.1,-0.1 3.7,1.5 3.7,3.6 z m -1.2,0 c 0,-1.3 -1.1,-2.4 -2.4,-2.4 -1.3,0 -2.4,1.1 -2.4,2.4 0,1.4 1.1,2.4 2.4,2.4 1.3,0 2.4,-1.1 2.4,-2.4 z"
   id="path233" />
	</g>
</g><g
         id="g236">
	<g
   id="g235">
		<path
   d="m 1812.9,113.8 c 7.2,2.3 14.5,4.7 20.7,9.3 6.1,4.5 10,11.1 12.5,18 2.5,6.8 3.8,13.9 5.1,21 1.6,8.5 3,17 4.3,25.6 5.3,34.5 8.6,69.3 9.7,104.1 1.2,34.7 0.3,69.5 -2.6,104 -2.9,34.8 -7.9,69.3 -15,103.5 -3.4,16.4 -6.6,33.2 -12.5,49 -5.3,14.1 -13.8,27.6 -27.2,35.1 -3.1,1.7 -6.3,3 -9.7,3.9 -1.9,0.5 -1.1,3.4 0.8,2.9 32.3,-8.7 41.5,-45.3 47.9,-73.7 7.9,-34.9 13.7,-70.2 17.3,-105.8 3.6,-35.7 5.1,-71.7 4.3,-107.6 -0.7,-35.7 -3.7,-71.4 -8.7,-106.8 -1.3,-8.9 -2.7,-17.7 -4.2,-26.5 -1.4,-7.9 -2.7,-15.8 -4.8,-23.5 -1.8,-6.7 -4.5,-13.4 -8.8,-19 -4.5,-5.8 -10.6,-9.7 -17.3,-12.5 -3.6,-1.5 -7.4,-2.8 -11.1,-4 -1.7,-0.5 -2.5,2.4 -0.7,3 z"
   id="path234" />
	</g>
</g><g
         id="g238">
	<g
   id="g237">
		<path
   d="m 1811.4,112.4 c 3.5,6.2 7.2,12.4 11,18.4 1,1.6 3.6,0.1 2.6,-1.5 -3.8,-6 -7.5,-12.2 -11,-18.4 -1,-1.7 -3.6,-0.2 -2.6,1.5 z"
   id="path236" />
	</g>
</g><g
         id="g240">
	<g
   id="g239">
		<path
   d="m 1813.1,112.9 c 6.1,-1 12.1,-2.1 18.2,-3.1 0.8,-0.1 1.2,-1.1 1,-1.8 -0.2,-0.8 -1,-1.2 -1.8,-1 -6.1,1 -12.1,2.1 -18.2,3.1 -0.8,0.1 -1.2,1.1 -1,1.8 0.1,0.8 1,1.1 1.8,1 z"
   id="path238" />
	</g>
</g><g
         id="g242">
	<g
   id="g241">
		<path
   d="m 1489.7,145 c -0.4,35.9 -0.6,71.9 -0.6,107.8 0,35.8 0.1,71.5 0.4,107.3 0.2,20.2 0.4,40.3 0.7,60.5 0,1.9 3,1.9 3,0 -0.5,-35.9 -0.8,-71.9 -0.9,-107.8 -0.1,-35.8 -0.1,-71.5 0.1,-107.3 0.1,-20.2 0.3,-40.3 0.5,-60.5 -0.1,-1.9 -3.1,-1.9 -3.2,0 z"
   id="path240" />
	</g>
</g><g
         id="g244">
	<g
   id="g243">
		<path
   d="m 1492.1,420 c -1.9,-8.6 -4.6,-17 -8.1,-25.1 -0.8,-1.8 -3.3,-0.2 -2.6,1.5 3.4,7.9 6,16 7.8,24.4 0.5,1.9 3.4,1.1 2.9,-0.8 z"
   id="path242" />
	</g>
</g><g
         id="g246">
	<g
   id="g245">
		<path
   d="m 1494,421.1 c 3.6,-8.4 6.9,-17 10.4,-25.4 0.7,-1.8 -2.2,-2.6 -2.9,-0.8 -3.3,8.2 -6.5,16.6 -10.1,24.7 -0.8,1.7 1.8,3.3 2.6,1.5 z"
   id="path244" />
	</g>
</g><g
         id="g248">
	<g
   id="g247">
		<path
   d="m 1204.5,130.3 c -15.8,23.7 -38.7,42.4 -65.2,52.9 -29.1,11.6 -60.9,13.8 -91.9,13.6 -33.9,-0.2 -67.9,-3.3 -101.8,0.1 -33,3.4 -65.2,13.3 -96.6,23.8 -31,10.4 -61.4,22.4 -91.1,36.1 -3.7,1.7 -7.4,3.4 -11.1,5.2 -1.7,0.8 -0.2,3.4 1.5,2.6 30.1,-14.3 60.9,-27 92.3,-37.9 15.7,-5.4 31.5,-10.5 47.5,-15 16.3,-4.6 32.9,-8.6 49.7,-10.9 34.1,-4.5 68.6,-1.7 102.9,-1.1 31,0.5 62.8,-0.9 92.3,-11 26.8,-9.2 50.6,-26 67.9,-48.4 2.1,-2.7 4.1,-5.5 6,-8.4 1.3,-1.7 -1.3,-3.2 -2.4,-1.6 z"
   id="path246" />
	</g>
</g><g
         id="g250">
	<g
   id="g249">
		<path
   d="m 748.4,265.7 c 9.3,-1.7 18.6,-3 28,-4 1.9,-0.2 1.9,-3.2 0,-3 -9.6,1 -19.2,2.4 -28.8,4.2 -1.9,0.3 -1.1,3.2 0.8,2.8 z"
   id="path248" />
	</g>
</g><g
         id="g252">
	<g
   id="g251">
		<path
   d="m 748,264.8 c 5.1,-6.4 10.9,-12.3 17.2,-17.6 0.6,-0.5 0.5,-1.6 0,-2.1 -0.6,-0.6 -1.5,-0.5 -2.1,0 -6.3,5.2 -12.1,11.1 -17.2,17.6 -0.5,0.6 -0.6,1.5 0,2.1 0.5,0.5 1.6,0.6 2.1,0 z"
   id="path250" />
	</g>
</g><line
         class="st12"
         x1="1198"
         y1="301"
         x2="1378"
         y2="301"
         id="line252" /><text
         transform="translate(1198,324)"
         class="st6 st7 st5"
         id="text252">译注: 原图被遮挡, 这是临时加的</text><g
         id="g254">
	<g
   id="g253">
		<path
   d="m 855.1,-478.4 c 1.8,3.6 5.3,5.6 8.9,7 4.5,1.7 9.3,2.6 14,3.3 10.1,1.6 20.3,2.6 30.5,3.5 21,1.9 42.1,2.8 63.2,2.9 5.7,0 11.5,-0.1 17.2,-0.1 4.1,0 8.8,0.2 11.5,3.7 1.2,1.5 3.3,-0.6 2.1,-2.1 -2.4,-3.1 -6.3,-4.1 -10,-4.4 -4.5,-0.4 -9.1,0 -13.7,0 -10.5,0.1 -21,-0.1 -31.5,-0.5 -20.9,-0.8 -41.7,-2.3 -62.4,-4.9 -5.5,-0.7 -11,-1.5 -16.4,-3 -4.1,-1.1 -8.9,-2.7 -10.9,-6.8 -0.8,-1.8 -3.4,-0.3 -2.5,1.4 z"
   id="path252" />
	</g>
</g><g
         id="g256">
	<g
   id="g255">
		<path
   d="m 854.2,-468.6 c 1.4,-3.2 2.7,-6.4 3.7,-9.7 0.2,-0.7 -0.3,-1.7 -1,-1.8 -0.8,-0.2 -1.6,0.2 -1.8,1 -1,3.1 -2.1,6.1 -3.4,8.9 -0.3,0.7 -0.2,1.6 0.5,2.1 0.6,0.4 1.7,0.2 2,-0.5 z"
   id="path254" />
	</g>
</g><g
         id="g258">
	<g
   id="g257">
		<path
   d="m 866.9,-478.9 c -3,-0.4 -5.9,-1.1 -8.8,-1.9 -0.8,-0.2 -1.7,0.3 -1.8,1 -0.2,0.8 0.2,1.6 1,1.8 2.9,0.8 5.8,1.5 8.8,1.9 0.8,0.1 1.7,-0.2 1.8,-1 0.2,-0.7 -0.2,-1.7 -1,-1.8 z"
   id="path256" />
	</g>
</g><g
         id="g260">
	<g
   id="g259">
		<path
   d="m 1001.7,-442.5 c 0.3,3.8 0.3,8.3 -2.5,11.2 -3,3.2 -7.7,3.8 -11.8,4.3 -0.8,0.1 -1.5,0.6 -1.5,1.5 0,0.7 0.7,1.6 1.5,1.5 4.9,-0.6 10.3,-1.3 14,-5.1 3.4,-3.6 3.8,-8.7 3.4,-13.3 -0.2,-2 -3.2,-2 -3.1,-0.1 z"
   id="path258" />
	</g>
</g><g
         id="g262">
	<g
   id="g261">
		<path
   d="m 856.2,-414 c 1.8,3.6 5.3,5.6 8.9,7 4.5,1.7 9.3,2.6 14,3.3 10.1,1.6 20.3,2.6 30.5,3.5 21,1.9 42.1,2.8 63.2,2.9 5.7,0 11.5,-0.1 17.2,-0.1 4.1,0 8.8,0.2 11.5,3.7 1.2,1.5 3.3,-0.6 2.1,-2.1 -2.4,-3.1 -6.3,-4.1 -10,-4.4 -4.5,-0.4 -9.1,0 -13.7,0 -10.5,0.1 -21,-0.1 -31.5,-0.5 -20.9,-0.8 -41.7,-2.3 -62.4,-4.9 -5.5,-0.7 -11,-1.5 -16.4,-3 -4.1,-1.1 -8.9,-2.7 -10.9,-6.8 -0.8,-1.8 -3.4,-0.3 -2.5,1.4 z"
   id="path260" />
	</g>
</g><g
         id="g264">
	<g
   id="g263">
		<path
   d="m 855.3,-404.3 c 1.4,-3.2 2.7,-6.4 3.7,-9.7 0.2,-0.7 -0.3,-1.7 -1,-1.8 -0.8,-0.2 -1.6,0.2 -1.8,1 -1,3.1 -2.1,6.1 -3.4,8.9 -0.3,0.7 -0.2,1.6 0.5,2.1 0.6,0.4 1.7,0.3 2,-0.5 z"
   id="path262" />
	</g>
</g><g
         id="g266">
	<g
   id="g265">
		<path
   d="m 868,-414.5 c -3,-0.4 -5.9,-1.1 -8.8,-1.9 -0.8,-0.2 -1.7,0.3 -1.8,1 -0.2,0.8 0.2,1.6 1,1.8 2.9,0.8 5.8,1.5 8.8,1.9 0.8,0.1 1.7,-0.2 1.8,-1 0.2,-0.7 -0.2,-1.7 -1,-1.8 z"
   id="path264" />
	</g>
</g><g
         id="g268">
	<g
   id="g267">
		<path
   d="m 1002.8,-378.1 c 0.3,3.8 0.3,8.3 -2.5,11.2 -3,3.2 -7.7,3.8 -11.8,4.3 -0.8,0.1 -1.5,0.6 -1.5,1.5 0,0.7 0.7,1.6 1.5,1.5 4.9,-0.6 10.3,-1.3 14,-5.1 3.4,-3.6 3.8,-8.7 3.4,-13.3 -0.2,-2.1 -3.2,-2.1 -3.1,-0.1 z"
   id="path266" />
	</g>
</g><g
         id="g270">
	<g
   id="g269">
		<path
   d="m 856.2,-351 c 1.8,3.6 5.3,5.6 8.9,7 4.5,1.7 9.3,2.6 14,3.3 10.1,1.6 20.3,2.6 30.5,3.5 21,1.9 42.1,2.8 63.2,2.9 5.7,0 11.5,-0.1 17.2,-0.1 4.1,0 8.8,0.2 11.5,3.7 1.2,1.5 3.3,-0.6 2.1,-2.1 -2.4,-3.1 -6.3,-4.1 -10,-4.4 -4.5,-0.4 -9.1,0 -13.7,0 -10.5,0.1 -21,-0.1 -31.5,-0.5 -20.9,-0.8 -41.7,-2.3 -62.4,-4.9 -5.5,-0.7 -11,-1.5 -16.4,-3 -4.1,-1.1 -8.9,-2.7 -10.9,-6.8 -0.8,-1.8 -3.4,-0.3 -2.5,1.4 z"
   id="path268" />
	</g>
</g><g
         id="g272">
	<g
   id="g271">
		<path
   d="m 855.3,-341.3 c 1.4,-3.2 2.7,-6.4 3.7,-9.7 0.2,-0.7 -0.3,-1.7 -1,-1.8 -0.8,-0.2 -1.6,0.2 -1.8,1 -1,3.1 -2.1,6.1 -3.4,8.9 -0.3,0.7 -0.2,1.6 0.5,2.1 0.6,0.4 1.7,0.3 2,-0.5 z"
   id="path270" />
	</g>
</g><g
         id="g274">
	<g
   id="g273">
		<path
   d="m 868,-351.5 c -3,-0.4 -5.9,-1.1 -8.8,-1.9 -0.8,-0.2 -1.7,0.3 -1.8,1 -0.2,0.8 0.2,1.6 1,1.8 2.9,0.8 5.8,1.5 8.8,1.9 0.8,0.1 1.7,-0.2 1.8,-1 0.2,-0.7 -0.2,-1.7 -1,-1.8 z"
   id="path272" />
	</g>
</g><g
         id="g276">
	<g
   id="g275">
		<path
   d="m 1002.8,-315.1 c 0.3,3.8 0.3,8.3 -2.5,11.2 -3,3.2 -7.7,3.8 -11.8,4.3 -0.8,0.1 -1.5,0.6 -1.5,1.5 0,0.7 0.7,1.6 1.5,1.5 4.9,-0.6 10.3,-1.3 14,-5.1 3.4,-3.6 3.8,-8.7 3.4,-13.3 -0.2,-2.1 -3.2,-2.1 -3.1,-0.1 z"
   id="path274" />
	</g>
</g><text
         xml:space="preserve"
         transform="translate(-50.538907,-443.1084)"
         id="text30"
         style="font-size:18.6667px;font-family:Hack;-inkscape-font-specification:Hack;white-space:pre;shape-inside:url(#rect30);fill:#000000"><tspan
           x="44.671875"
           y="591.55667"
           id="tspan2"><tspan
   style="fill:#0000fb"
   id="tspan1">script</tspan> {
</tspan><tspan
           x="44.671875"
           y="614.89004"
           id="tspan4">    <tspan
   style="fill:#0000ff"
   id="tspan3">use</tspan> aptos_framework::aptos_governance;
</tspan><tspan
           x="44.671875"
           y="638.22342"
           id="tspan6">    <tspan
   style="fill:#0000ff"
   id="tspan5">use</tspan> aptos_framework::staking_config;
</tspan><tspan
           x="44.671875"
           y="661.55679"
           id="tspan8">    <tspan
   style="fill:#0000ff"
   id="tspan7">use</tspan> aptos_framework::transaction_context::get_script_hash;
</tspan><tspan
           x="44.671875"
           y="684.89017"
           id="tspan9">
</tspan><tspan
           x="44.671875"
           y="708.22354"
           id="tspan11">    <tspan
   style="fill:#0000ff"
   id="tspan10">fun</tspan> main(proposal_id: u64) {
</tspan><tspan
           x="44.671875"
           y="731.55691"
           id="tspan13"><tspan
             dx="0 0 0 0 0 0 0 0 0 0 0 0 0 0 0 0 0 0 0 0 0 0 0 0 0 0 0 0 0 0 0 0 0 0 0 0 0 0 0 0 0 0 0 0 0 0 0 0 0 0 0 0 0 0 0 0 0 0 0 0 0 0 0 0 0 0 0 0 0 0 0 0 0 0 0 0 0 0 0 0 0 0 0 0 0 0 0 0 0 0 0 0 0 0 0 0.00010204315 0 0 0 0 0 0.00010204315 0 0 0 0 0 0.00010204315 0 0 0 0 0 0.00010204315 0 0 0 0 0 0.00010204315 0 0 0 0 0 0.00010204315"
             id="tspan12">        let framework_signer = &amp;aptos_governance::resolve_multi_step_proposal(proposal_id,@aptos_framework,get_script_hash());
</tspan></tspan><tspan
           x="44.671875"
           y="754.89029"
           id="tspan14">        
</tspan><tspan
           x="44.671875"
           y="780.08304"
           id="tspan33">        <tspan
   style="fill:#009600"
   id="tspan15">// </tspan><tspan
   style="fill:#009600"
   id="tspan16">将最小质押量降低</tspan><tspan
   style="fill:#009600"
   id="tspan28"> 1 </tspan><tspan
   style="fill:#009600"
   id="tspan29">个  </tspan><tspan
   style="fill:#009600"
   id="tspan30">APT</tspan><tspan
   style="fill:#009600"
   id="tspan31">。 </tspan><tspan
   style="fill:#009600"
   id="tspan32">这是一个极其细微的调整</tspan>
</tspan><tspan
           x="44.671875"
           y="803.41641"
           id="tspan36">        <tspan
   style="fill:#0000ff"
   id="tspan34">let</tspan><tspan
   dx="0 0 0 0 0 0 0 0 0 0 0 0 0 0 0 0 0 0 0 0 0 0 0 0 0 0 0 0 0 0 0 0 0 0 0 0 0 0 0 0 0 0 0 0 0 0 0 0 0 0 0 0 0 0 0 0 0 0 0 0 0 0 0 0 0 0 0 0 0 0 0 0 0 0 0 0 0 0 0 0 0 0 0 0 0 0 0 0 0 0 0 0 0 0 0 0.00012493134 0 0 0 0 0 0.00012493134 0 0 0 0 0 0.00012493134"
   id="tspan35"> (curr_min_stake_required,curr_max_stake_required) = staking_config::get_required_stake(&amp;staking_config::get());
</tspan></tspan><tspan
           x="44.671875"
           y="826.74979"
           id="tspan39">        <tspan
   style="fill:#0000ff"
   id="tspan37">let</tspan> updated_min_stake_required = curr_min_stake_required - <tspan
   style="fill:#0000ff"
   id="tspan38">1</tspan>;
</tspan><tspan
           x="44.671875"
           y="850.08316"
           id="tspan41"><tspan
             dx="0 0 0 0 0 0 0 0 0 0 0 0 0 0 0 0 0 0 0 0 0 0 0 0 0 0 0 0 0 0 0 0 0 0 0 0 0 0 0 0 0 0 0 0 0 0 0 0 0 0 0 0 0 0 0 0 0 0 0 0 0 0 0 0 0 0 0 0 0 0 0 0 0 0 0 0 0 0 0 0 0 0 0 0 0 0 0 0 0 0 0 0 0 0 0 0.00010204315 0 0 0 0 0 0.00010204315 0 0 0 0 0 0.00010204315 0 0 0 0 0 0.00010204315"
             id="tspan40">        staking_config::update_required_stake(framework_signer,updated_min_stake_required,curr_min_stake_required); 
</tspan></tspan><tspan
           x="44.671875"
           y="873.41653"
           id="tspan42">
</tspan><tspan
           x="44.671875"
           y="896.79432"
           id="tspan45">        <tspan
   style="fill:#009600"
   id="tspan43">// </tspan><tspan
   style="fill:#009600"
   id="tspan44">在提案执行结束时，始终触发重新配置事件
</tspan></tspan><tspan
           x="44.671875"
           y="920.12772"
           id="tspan46">        aptos_governance::reconfigure(framework_signer);
</tspan><tspan
           x="44.671875"
           y="943.46109"
           id="tspan47">    }
</tspan><tspan
           x="44.671875"
           y="966.79446"
           id="tspan48">}</tspan></text></g></g><style
     type="text/css"
     id="style1">
	.st0{fill:#ABC9FF;stroke:#000000;stroke-miterlimit:10;}
	.st1{fill:#00FFFF;}
	.st2{fill:none;stroke:#000000;stroke-width:3;stroke-miterlimit:10;}
	.st3{fill:#0000FF;}
	.st4{font-family:'Hack-Regular';}
	.st5{font-size:18px;}
	.st6{fill:#1D983A;}
	.st7{font-family:'SourceHanSansSC-Regular-GBpc-EUC-H';}
	.st8{letter-spacing:31;}
	.st9{fill:#C1DFB4;stroke:#000000;stroke-miterlimit:10;}
	.st10{font-size:24px;}
	.st11{fill:#2250A2;}
	.st12{fill:none;stroke:#1D983A;stroke-width:2;stroke-miterlimit:10;}
</style></svg>
